<svg xmlns="http://www.w3.org/2000/svg" width="140" height="60" viewBox="0 0 140 60" fill="none"><path d="M49.6293 45.2064H54.2463V35.0414C54.943 35.5481 55.7283 35.9408 56.6023 36.2194C57.489 36.5108 58.4643 36.6564 59.5283 36.6564C61.4283 36.6564 63.075 36.1814 64.4683 35.2314C65.8743 34.2814 66.9637 32.9894 67.7363 31.3554C68.509 29.7214 68.8953 27.8784 68.8953 25.8264C68.8953 23.7491 68.5027 21.8934 67.7173 20.2594C66.9447 18.6254 65.8427 17.3398 64.4113 16.4024C62.98 15.4651 61.2953 14.9964 59.3573 14.9964C58.192 14.9964 57.1343 15.1738 56.1843 15.5284C55.2343 15.8831 54.3983 16.3898 53.6763 17.0484V15.5664H49.6293V45.2064ZM58.8253 32.5524C56.9887 32.5524 55.6713 31.9318 54.8733 30.6904C54.0753 29.4364 53.6763 27.8151 53.6763 25.8264C53.6763 23.8251 54.069 22.2038 54.8543 20.9624C55.6523 19.7211 56.9253 19.1004 58.6733 19.1004C59.902 19.1004 60.909 19.4044 61.6943 20.0124C62.4923 20.6078 63.0813 21.4184 63.4613 22.4444C63.854 23.4578 64.0503 24.5851 64.0503 25.8264C64.0503 27.0804 63.8603 28.2141 63.4803 29.2274C63.113 30.2408 62.543 31.0514 61.7703 31.6594C60.9977 32.2548 60.016 32.5524 58.8253 32.5524ZM70.4233 36.0864H75.0213V25.6554C75.0213 24.4648 75.2367 23.4071 75.6673 22.4824C76.1107 21.5578 76.801 20.8421 77.7383 20.3354C78.3717 19.9681 79.081 19.7528 79.8663 19.6894C80.6517 19.6134 81.3547 19.6641 81.9753 19.8414V15.5664C81.0507 15.4271 80.1007 15.4461 79.1253 15.6234C78.15 15.7881 77.2823 16.1301 76.5223 16.6494C76.0917 16.9154 75.7053 17.2384 75.3633 17.6184C75.0213 17.9858 74.7237 18.3974 74.4703 18.8534V15.5664H70.4233V36.0864ZM88.1967 36.6564C89.8307 36.6564 91.2177 36.3904 92.3577 35.8584C93.5103 35.3138 94.5237 34.4714 95.3977 33.3314V36.0864H99.4067V23.4894C99.4067 22.6028 99.3687 21.7858 99.2927 21.0384C99.2167 20.2784 98.995 19.5374 98.6277 18.8154C97.9563 17.4601 96.924 16.4848 95.5307 15.8894C94.15 15.2941 92.5477 14.9964 90.7237 14.9964C88.317 14.9964 86.398 15.5221 84.9667 16.5734C83.5353 17.6248 82.5663 19.0181 82.0597 20.7534L86.2397 22.0644C86.5817 21.0131 87.1833 20.2721 88.0447 19.8414C88.906 19.4108 89.799 19.1954 90.7237 19.1954C92.117 19.1954 93.143 19.4804 93.8017 20.0504C94.4603 20.6078 94.834 21.4754 94.9227 22.6534C93.124 22.9194 91.452 23.1791 89.9067 23.4324C88.374 23.6731 87.0693 23.9708 85.9927 24.3254C84.3713 24.8828 83.187 25.6744 82.4397 26.7004C81.6923 27.7138 81.3187 28.9678 81.3187 30.4624C81.3187 31.5898 81.5783 32.6221 82.0977 33.5594C82.6297 34.4968 83.4087 35.2504 84.4347 35.8204C85.4607 36.3778 86.7147 36.6564 88.1967 36.6564ZM89.1087 33.0084C88.032 33.0084 87.2087 32.7614 86.6387 32.2674C86.0813 31.7734 85.8027 31.1528 85.8027 30.4054C85.8027 29.7341 86.018 29.1894 86.4487 28.7714C86.892 28.3534 87.5063 27.9988 88.2917 27.7074C89.0137 27.4668 89.8813 27.2578 90.8947 27.0804C91.908 26.8904 93.2317 26.6688 94.8657 26.4154C94.853 26.8968 94.8213 27.4351 94.7707 28.0304C94.72 28.6131 94.5997 29.1388 94.4097 29.6074C94.2577 30.0761 93.96 30.5764 93.5167 31.1084C93.086 31.6404 92.5033 32.0901 91.7687 32.4574C91.034 32.8248 90.1473 33.0084 89.1087 33.0084ZM101.655 36.0864H106.291V25.5414C106.291 23.8821 106.526 22.6028 106.994 21.7034C107.476 20.7914 108.084 20.1644 108.818 19.8224C109.566 19.4678 110.326 19.2904 111.098 19.2904C112.188 19.2904 113.055 19.5311 113.701 20.0124C114.347 20.4811 114.822 21.0828 115.126 21.8174C115.443 22.5394 115.646 23.2931 115.734 24.0784C115.836 24.8638 115.886 25.5731 115.886 26.2064V36.0864H120.522V24.6294C120.522 24.1481 120.478 23.5084 120.389 22.7104C120.313 21.9124 120.136 21.0701 119.857 20.1834C119.579 19.2968 119.148 18.4608 118.565 17.6754C117.983 16.8774 117.191 16.2314 116.19 15.7374C115.202 15.2308 113.955 14.9774 112.447 14.9774C110.965 14.9774 109.661 15.2371 108.533 15.7564C107.419 16.2631 106.488 16.9598 105.74 17.8464V15.5664H101.655V36.0864ZM128.558 36.6564C130.192 36.6564 131.579 36.3904 132.719 35.8584C133.872 35.3138 134.885 34.4714 135.759 33.3314V36.0864H139.768V23.4894C139.768 22.6028 139.73 21.7858 139.654 21.0384C139.578 20.2784 139.357 19.5374 138.989 18.8154C138.318 17.4601 137.286 16.4848 135.892 15.8894C134.512 15.2941 132.909 14.9964 131.085 14.9964C128.679 14.9964 126.76 15.5221 125.328 16.5734C123.897 17.6248 122.928 19.0181 122.421 20.7534L126.601 22.0644C126.943 21.0131 127.545 20.2721 128.406 19.8414C129.268 19.4108 130.161 19.1954 131.085 19.1954C132.479 19.1954 133.505 19.4804 134.163 20.0504C134.822 20.6078 135.196 21.4754 135.284 22.6534C133.486 22.9194 131.814 23.1791 130.268 23.4324C128.736 23.6731 127.431 23.9708 126.354 24.3254C124.733 24.8828 123.549 25.6744 122.801 26.7004C122.054 27.7138 121.68 28.9678 121.68 30.4624C121.68 31.5898 121.94 32.6221 122.459 33.5594C122.991 34.4968 123.77 35.2504 124.796 35.8204C125.822 36.3778 127.076 36.6564 128.558 36.6564ZM129.47 33.0084C128.394 33.0084 127.57 32.7614 127 32.2674C126.443 31.7734 126.164 31.1528 126.164 30.4054C126.164 29.7341 126.38 29.1894 126.81 28.7714C127.254 28.3534 127.868 27.9988 128.653 27.7074C129.375 27.4668 130.243 27.2578 131.256 27.0804C132.27 26.8904 133.593 26.6688 135.227 26.4154C135.215 26.8968 135.183 27.4351 135.132 28.0304C135.082 28.6131 134.961 29.1388 134.771 29.6074C134.619 30.0761 134.322 30.5764 133.878 31.1084C133.448 31.6404 132.865 32.0901 132.13 32.4574C131.396 32.8248 130.509 33.0084 129.47 33.0084Z" fill="#343130"></path><path d="M97.249 55.7565H98.572L103.792 41.7165H102.442L99.499 49.7085L96.304 41.7165H94.9L98.851 51.4095L97.249 55.7565ZM108.883 51.7065C109.843 51.7065 110.665 51.4905 111.349 51.0585C112.039 50.6265 112.567 50.0265 112.933 49.2585C113.305 48.4845 113.491 47.5875 113.491 46.5675C113.491 45.5655 113.308 44.6805 112.942 43.9125C112.582 43.1385 112.057 42.5355 111.367 42.1035C110.683 41.6655 109.855 41.4465 108.883 41.4465C107.935 41.4465 107.116 41.6625 106.426 42.0945C105.742 42.5205 105.214 43.1175 104.842 43.8855C104.47 44.6535 104.284 45.5475 104.284 46.5675C104.284 47.5695 104.464 48.4575 104.824 49.2315C105.19 50.0055 105.715 50.6115 106.399 51.0495C107.089 51.4875 107.917 51.7065 108.883 51.7065ZM108.883 50.4375C107.833 50.4375 107.038 50.0865 106.498 49.3845C105.958 48.6765 105.688 47.7375 105.688 46.5675C105.688 45.4335 105.949 44.5095 106.471 43.7955C106.993 43.0755 107.797 42.7155 108.883 42.7155C109.957 42.7155 110.758 43.0665 111.286 43.7685C111.82 44.4645 112.087 45.3975 112.087 46.5675C112.087 47.7135 111.823 48.6465 111.295 49.3665C110.767 50.0805 109.963 50.4375 108.883 50.4375ZM119.067 51.7065C119.721 51.7065 120.303 51.5805 120.813 51.3285C121.323 51.0765 121.752 50.7285 122.1 50.2845V51.2835C122.106 52.4235 121.881 53.2845 121.425 53.8665C120.969 54.4485 120.213 54.7395 119.157 54.7395C118.647 54.7395 118.146 54.6195 117.654 54.3795C117.162 54.1455 116.784 53.7585 116.52 53.2185L115.323 53.8845C115.737 54.6405 116.292 55.1865 116.988 55.5225C117.69 55.8585 118.413 56.0265 119.157 56.0265C120.345 56.0265 121.293 55.7685 122.001 55.2525C122.709 54.7365 123.15 53.9355 123.324 52.8495C123.366 52.6035 123.393 52.3515 123.405 52.0935C123.423 51.8415 123.432 51.5775 123.432 51.3015V41.7165H122.253V43.0575C121.899 42.5535 121.449 42.1605 120.903 41.8785C120.363 41.5905 119.733 41.4465 119.013 41.4465C118.125 41.4465 117.363 41.6715 116.727 42.1215C116.091 42.5715 115.602 43.1835 115.26 43.9575C114.924 44.7315 114.756 45.6015 114.756 46.5675C114.756 47.5395 114.924 48.4125 115.26 49.1865C115.602 49.9605 116.094 50.5755 116.736 51.0315C117.384 51.4815 118.161 51.7065 119.067 51.7065ZM119.202 50.4735C118.53 50.4735 117.966 50.3025 117.51 49.9605C117.06 49.6125 116.721 49.1445 116.493 48.5565C116.271 47.9685 116.16 47.3055 116.16 46.5675C116.16 45.8355 116.271 45.1755 116.493 44.5875C116.715 43.9995 117.051 43.5345 117.501 43.1925C117.957 42.8505 118.533 42.6795 119.229 42.6795C120.243 42.6795 120.999 43.0425 121.497 43.7685C122.001 44.4885 122.253 45.4215 122.253 46.5675C122.253 47.3175 122.142 47.9865 121.92 48.5745C121.698 49.1625 121.362 49.6275 120.912 49.9695C120.462 50.3055 119.892 50.4735 119.202 50.4735ZM128.549 51.7065C130.247 51.7065 131.48 51.0795 132.248 49.8255V51.4365H133.427V45.3975C133.427 45.0375 133.409 44.6835 133.373 44.3355C133.337 43.9875 133.259 43.6725 133.139 43.3905C132.881 42.7605 132.44 42.2805 131.816 41.9505C131.198 41.6145 130.445 41.4465 129.557 41.4465C128.489 41.4465 127.619 41.6865 126.947 42.1665C126.275 42.6465 125.825 43.3215 125.597 44.1915L126.884 44.5695C127.07 43.9215 127.391 43.4475 127.847 43.1475C128.309 42.8475 128.873 42.6975 129.539 42.6975C130.463 42.6975 131.123 42.9135 131.519 43.3455C131.915 43.7715 132.119 44.4225 132.131 45.2985C131.699 45.3585 131.222 45.4215 130.7 45.4875C130.184 45.5535 129.665 45.6285 129.143 45.7125C128.621 45.7965 128.141 45.8925 127.703 46.0005C126.977 46.1925 126.383 46.5135 125.921 46.9635C125.459 47.4075 125.228 48.0285 125.228 48.8265C125.228 49.3425 125.351 49.8195 125.597 50.2575C125.843 50.6955 126.212 51.0465 126.704 51.3105C127.202 51.5745 127.817 51.7065 128.549 51.7065ZM128.702 50.5635C128.18 50.5635 127.76 50.4795 127.442 50.3115C127.13 50.1375 126.902 49.9185 126.758 49.6545C126.62 49.3845 126.551 49.1085 126.551 48.8265C126.551 48.2985 126.728 47.9025 127.082 47.6385C127.436 47.3745 127.82 47.1825 128.234 47.0625C128.768 46.9185 129.389 46.8015 130.097 46.7115C130.805 46.6215 131.477 46.5375 132.113 46.4595C132.113 46.6815 132.104 46.9365 132.086 47.2245C132.074 47.5065 132.041 47.7675 131.987 48.0075C131.861 48.7395 131.513 49.3485 130.943 49.8345C130.379 50.3205 129.632 50.5635 128.702 50.5635Z" fill="#343130"></path><path d="M37.9873 27.861C38.3676 41.7944 30.1299 44.7275 19.7658 44.7275C9.40175 44.7275 1 36.8969 1 27.2372C1 17.5776 12.5861 9.27283 19.7658 9.74689C21.7168 9.74689 36.5877 11.6182 37.9873 27.861Z" fill="#FFCA6B"></path><path d="M18.1317 43.7686C3.9526 44.9793 2.97439 30.4282 3.06085 31.303C1.88787 21.6873 8.26474 13.8951 16.0292 13.2321C23.7936 12.5691 31.2847 21.551 31.4091 27.5028C31.4474 29.3357 30.8114 40.1541 18.1317 43.7686Z" fill="#FF907E"></path><path d="M26.0205 30.6152C26.6515 39.0913 15.3521 39.1115 15.8388 39.0913C10.4836 39.4654 6.3641 34.7643 6.23059 29.432C6.09709 24.0997 11.9617 20.031 17.1519 19.9433C22.342 19.8556 25.2721 23.9402 26.0205 30.6152Z" fill="#FF7D6A"></path></svg>