<svg width="26" height="26" viewBox="0 0 26 26" fill="none" xmlns="http://www.w3.org/2000/svg">
<rect width="26" height="26" rx="13" fill="white"/>
<path opacity="0.4" d="M19.4334 11.6867C19.1734 11.3133 18.7134 11.1 18.1867 11.1H15.4534C15.2734 11.1 15.1067 11.0267 14.9934 10.8933C14.8734 10.76 14.8267 10.5733 14.8534 10.38L15.1934 8.19334C15.34 7.54 14.9067 6.80667 14.2534 6.58667C13.6467 6.36 12.9334 6.66667 12.6467 7.1L9.83336 11.28L9.75336 11.4133V17.3067L9.85336 17.4067L11.9667 19.04C12.2467 19.32 12.88 19.4733 13.3267 19.4733H15.9267C16.82 19.4733 17.72 18.8 17.92 17.98L19.56 12.9867C19.7334 12.5133 19.6867 12.0533 19.4334 11.6867Z" fill="#bca3eaE"/>
<path d="M8.47331 9.25333H7.78665C6.75331 9.25333 6.33331 9.65333 6.33331 10.64V17.3467C6.33331 18.3333 6.75331 18.7333 7.78665 18.7333H8.47331C9.50665 18.7333 9.92665 18.3333 9.92665 17.3467V10.64C9.92665 9.65333 9.50665 9.25333 8.47331 9.25333Z" fill="#bca3eaE"/>
</svg>
