<svg width="26" height="27" viewBox="0 0 26 27" fill="none" xmlns="http://www.w3.org/2000/svg">
<rect y="0.0235596" width="26" height="26" rx="13" fill="white"/>
<path opacity="0.4" d="M19.1666 11.1236C17.6266 8.70357 15.3733 7.31024 12.9999 7.31024C11.8133 7.31024 10.6599 7.65691 9.60659 8.30357C8.55325 8.95691 7.60659 9.91024 6.83325 11.1236C6.16659 12.1702 6.16659 13.8702 6.83325 14.9169C8.37325 17.3436 10.6266 18.7302 12.9999 18.7302C14.1866 18.7302 15.3399 18.3836 16.3933 17.7369C17.4466 17.0836 18.3933 16.1302 19.1666 14.9169C19.8333 13.8769 19.8333 12.1702 19.1666 11.1236ZM12.9999 15.7169C11.5066 15.7169 10.3066 14.5102 10.3066 13.0236C10.3066 11.5369 11.5066 10.3302 12.9999 10.3302C14.4933 10.3302 15.6933 11.5369 15.6933 13.0236C15.6933 14.5102 14.4933 15.7169 12.9999 15.7169Z" fill="#0073FF"/>
<path d="M13.0001 11.1169C11.9534 11.1169 11.1001 11.9702 11.1001 13.0235C11.1001 14.0702 11.9534 14.9235 13.0001 14.9235C14.0468 14.9235 14.9068 14.0702 14.9068 13.0235C14.9068 11.9769 14.0468 11.1169 13.0001 11.1169Z" fill="#0073FF"/>
</svg>
