<svg width="26" height="26" viewBox="0 0 26 26" fill="none" xmlns="http://www.w3.org/2000/svg">
<rect width="26" height="26" rx="13" fill="white"/>
<path opacity="0.4" d="M6.33331 13.6467V9.65999C6.33331 7.81999 7.82665 6.33333 9.66665 6.33333H16.3333C18.1733 6.33333 19.6666 7.81999 19.6666 9.65999V14.3133C19.6666 16.1467 18.1733 17.6333 16.3333 17.6333H15.3333C15.1266 17.6333 14.9266 17.7333 14.8 17.9L13.8 19.2267C13.36 19.8133 12.64 19.8133 12.2 19.2267L11.2 17.9C11.0933 17.7533 10.8533 17.6333 10.6666 17.6333H9.66665C7.82665 17.6333 6.33331 16.1467 6.33331 14.3133V13.6467Z" fill="#2660FF"/>
<path d="M16.3334 10.8333H9.66669C9.39335 10.8333 9.16669 10.6067 9.16669 10.3333C9.16669 10.06 9.39335 9.83333 9.66669 9.83333H16.3334C16.6067 9.83333 16.8334 10.06 16.8334 10.3333C16.8334 10.6067 16.6067 10.8333 16.3334 10.8333Z" fill="#2660FF"/>
<path d="M13.6667 14.1667H9.66669C9.39335 14.1667 9.16669 13.94 9.16669 13.6667C9.16669 13.3933 9.39335 13.1667 9.66669 13.1667H13.6667C13.94 13.1667 14.1667 13.3933 14.1667 13.6667C14.1667 13.94 13.94 14.1667 13.6667 14.1667Z" fill="#2660FF"/>
</svg>
