<svg width="1920" height="750" viewBox="0 0 1920 750" fill="none" xmlns="http://www.w3.org/2000/svg">
<path opacity="0.4" d="M155.906 581C155.906 581 149.64 586.314 144.326 585.917C144.326 585.917 142.899 596.387 135.998 603.604C135.998 603.604 141.312 605.349 148.292 600.829C148.292 600.829 156.699 590.676 155.827 581.079L155.906 581Z" fill="#12C6FF"/>
<path d="M1778.91 554C1778.91 554 1772.61 559.329 1767.27 558.931C1767.27 558.931 1765.84 569.43 1758.91 576.668C1758.91 576.668 1764.24 578.418 1771.26 573.884C1771.26 573.884 1779.7 563.703 1778.83 554.08L1778.91 554Z" fill="#B38FFF" fill-opacity="0.5"/>
<path opacity="0.4" d="M788 255.936C788 255.936 794.266 250.622 799.58 251.018C799.58 251.018 801.008 240.549 807.908 233.331C807.908 233.331 802.594 231.586 795.614 236.107C795.614 236.107 787.207 246.259 788.079 255.856L788 255.936Z" fill="#12C6FF"/>
<path d="M-7.85485 4.34536C-8.85043 10.4483 -9.24593 18.1875 -10.7168 26.8488M-10.7168 26.8488C-13.3566 42.3931 -19.4599 60.9073 -38.7116 78.2631C-60.8769 98.2456 -38.0985 51.1328 -10.7168 26.8488ZM-10.7168 26.8488C-1.92533 19.0519 7.34068 13.6084 15.746 13.4945C30.686 13.2922 27.2678 33.6566 17.1135 57.7307M17.1135 57.7307C-0.209102 98.7995 -37.1351 150.664 -35.9647 129.637C-35.3223 118.094 -7.32054 80.4028 17.1135 57.7307ZM17.1135 57.7307C32.1795 43.7511 45.8891 35.4818 50.9921 42.5742C55.2022 48.4257 53.9481 59.4055 49.4918 72.5589M49.4918 72.5589C35.9332 112.579 -7.26944 172.719 -16.4069 169.752C-31.5488 164.836 14.1792 103.015 49.4918 72.5589ZM49.4918 72.5589C64.1276 59.9361 76.9742 52.7013 82.9564 57.139C95.0117 66.082 86.6893 91.3002 72.6487 114.676M72.6487 114.676C58.3357 138.504 38.0805 160.418 27.4126 161.223C16.7533 162.028 42.6852 130.98 72.6487 114.676ZM72.6487 114.676C90.2093 105.12 109.155 100.629 122.931 110.581" stroke="#FFBC99" stroke-width="4" stroke-linecap="round"/>
<path d="M1900.46 45.0297C1900.46 45.0297 1880.13 53.4124 1881.74 73.094C1883.3 92.7391 1897.68 106.836 1886 118.835C1886 118.835 1882.02 107.578 1878.47 97.1899C1874.92 86.8013 1868.63 50.7372 1900.43 45.0754L1900.46 45.0297Z" fill="#07C5BD"/>
<path d="M1952.2 33.8013C1948.05 34.8754 1943.23 35.5677 1937.61 35.7689C1904.26 36.9737 1889.12 42.3542 1880.92 57.8821C1880.92 57.8821 1891.86 44.0829 1932.72 44.3374C1944.1 44.4212 1952.47 42.1807 1958.64 38.9434L1952.15 33.7649L1952.2 33.8013Z" fill="#1FE1D9"/>
<path d="M1849.71 113.312C1849.71 113.312 1843.19 117.606 1853.34 132.975C1863.43 148.307 1852.58 157.083 1852.58 157.083L1852.82 151.113L1846.58 152.218C1846.58 152.218 1851.8 147.852 1846.32 139.398C1839.1 128.216 1838.54 121.165 1842.38 115.403C1846.31 109.632 1849.7 113.23 1849.7 113.23L1849.71 113.312Z" fill="#07C5BD"/>
<path d="M1840.01 121.257C1840.01 121.257 1841.92 111.962 1854.42 114.575C1866.92 117.188 1883.6 130.806 1890.33 111.091C1890.33 111.091 1881.6 116.01 1868.36 109.744C1855.17 103.432 1840.67 106.821 1840.01 121.257Z" fill="#1FE1D9"/>
<path d="M1637 71C1637 71 1643.29 65.6711 1648.63 66.0687C1648.63 66.0687 1650.07 55.5699 1657 48.3321C1657 48.3321 1651.66 46.5823 1644.65 51.1159C1644.65 51.1159 1636.2 61.2965 1637.08 70.9205L1637 71Z" fill="#B38FFF" fill-opacity="0.5"/>
</svg>
