<svg width="24" height="22" viewBox="0 0 24 22" fill="none" xmlns="http://www.w3.org/2000/svg">
<path fill-rule="evenodd" clip-rule="evenodd" d="M17.3366 0.587891C18.8647 0.587891 20.3346 1.19182 21.416 2.27547C22.4985 3.35684 23.1035 4.81538 23.1035 6.34229V15.3442C23.1035 18.5234 20.5169 21.0986 17.3366 21.0986H6.07964C2.89933 21.0986 0.313843 18.5234 0.313843 15.3442V6.34229C0.313843 3.16313 2.88794 0.587891 6.07964 0.587891H17.3366ZM19.1495 8.04012L19.2407 7.94896C19.513 7.61851 19.513 7.13993 19.2282 6.80948C19.0698 6.63969 18.8521 6.536 18.6254 6.51321C18.3861 6.50068 18.1582 6.58158 17.9861 6.74111L12.8482 10.8433C12.1873 11.3913 11.2404 11.3913 10.5692 10.8433L5.44152 6.74111C5.08715 6.47903 4.59717 6.51321 4.30204 6.82087C3.99438 7.12853 3.96019 7.61851 4.22114 7.96036L4.37041 8.10849L9.55507 12.1537C10.1932 12.655 10.9669 12.9285 11.7771 12.9285C12.585 12.9285 13.3723 12.655 14.0093 12.1537L19.1495 8.04012Z" fill="#130F26"/>
</svg>
