<svg width="26" height="26" viewBox="0 0 26 26" fill="none" xmlns="http://www.w3.org/2000/svg">
<rect width="26" height="26" rx="13" fill="white"/>
<path d="M19.6666 10.7933C19.6666 11.5867 19.54 12.32 19.32 13H6.67998C6.45998 12.32 6.33331 11.5867 6.33331 10.7933C6.33331 8.73332 7.99331 7.06665 10.04 7.06665C11.2466 7.06665 12.3266 7.65332 13 8.55332C13.6733 7.65332 14.7533 7.06665 15.96 7.06665C18.0066 7.06665 19.6666 8.73332 19.6666 10.7933Z" fill="#FF184E"/>
<path opacity="0.4" d="M19.32 13C18.2667 16.3333 15.02 18.3267 13.4133 18.8733C13.1867 18.9533 12.8133 18.9533 12.5867 18.8733C10.98 18.3267 7.73333 16.3333 6.67999 13H19.32Z" fill="#FF184E"/>
</svg>
