<svg width="210" height="34" viewBox="0 0 210 34" fill="none" xmlns="http://www.w3.org/2000/svg">
<path d="M19.008 16.72C21.632 17.136 23.616 18.064 24.96 19.504C26.304 20.912 26.976 22.8 26.976 25.168C26.976 28.048 25.952 30.24 23.904 31.744C21.856 33.248 18.8 34 14.736 34H0.144V0.399998H13.776C17.328 0.399998 20.112 1.136 22.128 2.608C24.144 4.08 25.152 6.192 25.152 8.944C25.152 10.96 24.608 12.624 23.52 13.936C22.432 15.248 20.928 16.176 19.008 16.72ZM1.776 1.84V16.24H13.824C16.928 16.24 19.328 15.632 21.024 14.416C22.72 13.168 23.568 11.376 23.568 9.04C23.568 6.704 22.72 4.928 21.024 3.712C19.328 2.464 16.928 1.84 13.824 1.84H1.776ZM14.832 32.56C18.32 32.56 20.944 31.952 22.704 30.736C24.464 29.52 25.344 27.648 25.344 25.12C25.344 22.56 24.464 20.672 22.704 19.456C20.944 18.24 18.32 17.632 14.832 17.632H1.776V32.56H14.832ZM63.936 24.16H43.824L39.312 34H37.536L53.088 0.399998H54.672L70.224 34H68.448L63.936 24.16ZM63.312 22.768L53.904 2.272L44.448 22.768H63.312ZM106.862 32.512V34H80.1739V32.848L104.126 1.888H80.4139V0.399998H106.334V1.552L82.3819 32.512H106.862ZM121.963 0.399998H123.595V34H121.963V0.399998ZM165.789 32.512V34H143.085V0.399998H165.117V1.888H144.717V16.192H162.957V17.68H144.717V32.512H165.789ZM209.179 0.399998V34H207.835L183.979 3.376V34H182.347V0.399998H183.691L207.547 31.024V0.399998H209.179Z" fill="white"/>
</svg>
