<svg xmlns="http://www.w3.org/2000/svg" width="52.895" height="46.667" viewBox="-1 -1 54.895 46.667">
  <path d="M43.451-132.3a10.942,10.942,0,0,1,9.247,4.529q3.4,4.529,3.4,12.832A31.168,31.168,0,0,1,52.6-100.314,54.14,54.14,0,0,1,42.13-86.822a.769.769,0,0,1-.566.189,1.109,1.109,0,0,1-.944-.566q-.377-.566,0-.944a30.761,30.761,0,0,0,9.247-22.267q0-5.284-1.887-7.737-1.7,2.831-6.227,2.831a7.677,7.677,0,0,1-5.944-2.359,8.7,8.7,0,0,1-2.17-6.133,7.844,7.844,0,0,1,2.548-6.322Q38.733-132.3,43.451-132.3Zm-29.438,0a10.942,10.942,0,0,1,9.247,4.529q3.4,4.529,3.4,12.832a31.168,31.168,0,0,1-3.491,14.625A54.14,54.14,0,0,1,12.692-86.822a.769.769,0,0,1-.566.189,1.109,1.109,0,0,1-.944-.566q-.377-.566,0-.944a30.761,30.761,0,0,0,9.247-22.267q0-5.284-1.887-7.737-1.7,2.831-6.227,2.831a7.677,7.677,0,0,1-5.944-2.359,8.7,8.7,0,0,1-2.17-6.133,7.844,7.844,0,0,1,2.548-6.322Q9.3-132.3,14.013-132.3Z" transform="translate(-3.7 132.8)" fill="none" stroke="#0f0f0f" stroke-width="1"/>
</svg>
