<svg xmlns="http://www.w3.org/2000/svg" viewBox="0 0 240.37 48"><defs><style>.cls-1{fill:#1f425d;}.cls-2{fill:#4ab9cf;}.cls-3{fill:#fd7062;}</style></defs><title>Asset 5</title><g id="Layer_2" data-name="Layer 2"><g id="Layer_1-2" data-name="Layer 1"><path class="cls-1" d="M82.64,13.86v4H77.25V34.22h-5V17.84h-5.4v-4Z"/><path class="cls-1" d="M95.52,34.22l-4.24-7.68H90.09v7.68h-5V13.86h8.33a9,9,0,0,1,4.1.85A5.77,5.77,0,0,1,100.1,17a6.44,6.44,0,0,1,.84,3.26,6,6,0,0,1-1.15,3.63,6.14,6.14,0,0,1-3.38,2.26l4.7,8.06ZM90.09,23h3.08a2.79,2.79,0,0,0,2-.67,2.52,2.52,0,0,0,.68-1.88,2.44,2.44,0,0,0-.68-1.83,2.79,2.79,0,0,0-2-.67H90.09Z"/><path class="cls-1" d="M116.71,30.63h-7.59l-1.22,3.59h-5.19l7.36-20.36h5.74l7.37,20.36h-5.25Zm-1.27-3.83-2.53-7.45-2.49,7.45Z"/><path class="cls-1" d="M143.63,34.22h-5l-8.3-12.55V34.22h-5V13.86h5l8.3,12.62V13.86h5Z"/><path class="cls-1" d="M150.59,33.7a6.46,6.46,0,0,1-2.83-2.15,5.81,5.81,0,0,1-1.12-3.42h5.28a2.6,2.6,0,0,0,.78,1.73,2.56,2.56,0,0,0,1.74.59,2.75,2.75,0,0,0,1.74-.5,1.69,1.69,0,0,0,.64-1.41,1.67,1.67,0,0,0-.51-1.25,4,4,0,0,0-1.24-.81c-.5-.21-1.2-.45-2.11-.73a23.67,23.67,0,0,1-3.22-1.21,6,6,0,0,1-2.14-1.8,5,5,0,0,1-.9-3.1,5.36,5.36,0,0,1,2.06-4.46,8.47,8.47,0,0,1,5.36-1.61,8.6,8.6,0,0,1,5.43,1.61,5.79,5.79,0,0,1,2.2,4.48h-5.36a2.1,2.1,0,0,0-.73-1.55,2.57,2.57,0,0,0-1.71-.56,2.13,2.13,0,0,0-1.45.48A1.69,1.69,0,0,0,152,19.4a1.71,1.71,0,0,0,.93,1.54,15.22,15.22,0,0,0,2.9,1.19,25.45,25.45,0,0,1,3.2,1.28,6.06,6.06,0,0,1,2.13,1.76,4.75,4.75,0,0,1,.9,3,5.83,5.83,0,0,1-.88,3.16,6.19,6.19,0,0,1-2.57,2.26,8.67,8.67,0,0,1-4,.85A10.49,10.49,0,0,1,150.59,33.7Z"/><path class="cls-2" d="M170,30.39h6.49v3.83H165.06V13.86h5Z"/><path class="cls-2" d="M191.56,30.63H184l-1.21,3.59h-5.19l7.36-20.36h5.74L198,34.22h-5.25Zm-1.27-3.83-2.53-7.45-2.49,7.45Z"/><path class="cls-2" d="M218.47,34.22h-5l-8.29-12.55V34.22h-5V13.86h5l8.29,12.62V13.86h5Z"/><path class="cls-2" d="M235.32,15.14a9.07,9.07,0,0,1,3.73,3.58A10.52,10.52,0,0,1,240.37,24a10.56,10.56,0,0,1-1.32,5.31,9.08,9.08,0,0,1-3.74,3.6,11.9,11.9,0,0,1-5.61,1.27h-7.63V13.86h7.63A11.83,11.83,0,0,1,235.32,15.14Zm-1.56,13.25A5.82,5.82,0,0,0,235.32,24a6,6,0,0,0-1.56-4.38,6,6,0,0,0-4.38-1.56H227V29.93h2.35A6,6,0,0,0,233.76,28.39Z"/><path class="cls-2" d="M34.09,29.27c-9.22,2.63-18.38,3.89-23.86,2.62-4-.92-6-3.16-4.8-7.16C-.74,27-1.31,34,2,37c2.28,2.07,6.57,2.89,12.16,2a47.13,47.13,0,0,0,10.7-3.11c-3,2.34-5.94,3.44-9.3,4.72a23.43,23.43,0,0,0,17,7.34A24,24,0,0,0,56.33,23.79c0-.6,0-1.19-.06-1.79h0l9.15-11.13c-2,1.54-7.54,6.39-9.63,7.82A75.37,75.37,0,0,1,34.09,29.27Z"/><path class="cls-3" d="M10.28,24a33.8,33.8,0,0,0,7.39,1.34h0l.28,0,.82.05.93.05h.56l1.11,0h.47l1.14,0,.89,0,.46,0A61.62,61.62,0,0,0,38,23.13l.81-.23.56-.18,1.1-.34.44-.15,1.17-.41.42-.16,1.13-.43.45-.19,1-.43.51-.23.93-.43.55-.26.86-.43.43-.22h0a39,39,0,0,0,6.08-3.94.59.59,0,0,0,.17-.7A23.47,23.47,0,0,0,39.51.88a.31.31,0,0,0-.13,0,22.78,22.78,0,0,0-8-.78,23.11,23.11,0,0,0-9,2.66l-.1,0a23.71,23.71,0,0,0-6.1,4.77c-.32.35-.62.72-.92,1.08l-.07.08a24.3,24.3,0,0,0-3.81,6.74s0,0,0,0a.14.14,0,0,0,0,.06,23.94,23.94,0,0,0-1.45,7.85A.58.58,0,0,0,10.28,24Zm8,.2a33.85,33.85,0,0,1,.18-5.64,40.54,40.54,0,0,0,8.07,1.14c0,1.42.11,2.88.22,4.35A52.65,52.65,0,0,1,18.28,24.16Zm8.23-5.67a39.33,39.33,0,0,1-7.88-1.14,28,28,0,0,1,1.57-5.88,29.83,29.83,0,0,0,6.48.87C26.54,14.26,26.48,16.33,26.51,18.49Zm.27-7.32a28.92,28.92,0,0,1-6.12-.79,18.93,18.93,0,0,1,3.89-5.77,19.48,19.48,0,0,0,3.22.54c-.22.84-.4,1.7-.54,2.52C27,8.76,26.89,9.93,26.78,11.17Zm1,1.17a34.2,34.2,0,0,0,3.88-.23,32.63,32.63,0,0,0,4.95-.95c.43,1.79.82,3.79,1.14,6a34.5,34.5,0,0,1-10.14,1.39C27.63,16.35,27.69,14.27,27.83,12.34Zm.1-1.16c.11-1.17.25-2.27.43-3.3A25.85,25.85,0,0,1,29,5.22h.7a19.73,19.73,0,0,0,4.87-.58A33.62,33.62,0,0,1,36.38,10,33.29,33.29,0,0,1,27.93,11.18Zm0,12.72c-.11-1.43-.18-2.84-.22-4.21H28A36,36,0,0,0,38,18.3c.15,1.12.29,2.28.4,3.49A62.47,62.47,0,0,1,27.9,23.9Zm9.86-13.06a23.88,23.88,0,0,0,5.65-2.58A26.19,26.19,0,0,1,46,13.38a31.5,31.5,0,0,1-7.13,3.39C38.59,14.7,38.21,12.7,37.76,10.84Zm9.51,7.46c-.33.16-.65.33-1,.48l-.28.14-1.18.53-.12.06a54.24,54.24,0,0,1-5.22,1.94c-.11-1.17-.25-2.34-.41-3.5a32.58,32.58,0,0,0,7.37-3.45,32.34,32.34,0,0,1,1,3.7Zm6.15-3.86a36.36,36.36,0,0,1-4.91,3.2,32.63,32.63,0,0,0-1.07-3.78,33.74,33.74,0,0,0,3.9-3.12A23.81,23.81,0,0,1,53.42,14.44ZM46.5,5.68a22.07,22.07,0,0,1,4.14,4.11A30.61,30.61,0,0,1,47,12.73,27.85,27.85,0,0,0,44.35,7.6,14.33,14.33,0,0,0,46.5,5.68Zm-7-3.59A21.82,21.82,0,0,1,45.55,5a13.67,13.67,0,0,1-1.87,1.66,18.69,18.69,0,0,0-4.46-4.35Zm3.29,5.22a22.2,22.2,0,0,1-5.26,2.41,35.07,35.07,0,0,0-1.84-5.41,11.45,11.45,0,0,0,2.61-1.25A17.09,17.09,0,0,1,42.74,7.31ZM37.1,2.4a11.06,11.06,0,0,1-2,.86,10,10,0,0,0-1.29-1.92A11,11,0,0,1,37.1,2.4ZM31.46,1.24h.09c.75,0,1.6.82,2.44,2.34a19.14,19.14,0,0,1-4.67.47C30,2.11,30.82,1.29,31.46,1.24Zm-2.32.48a11.19,11.19,0,0,0-1,2.28,19,19,0,0,1-2.48-.34A11.26,11.26,0,0,1,29.14,1.72ZM24.68,2.9c-.15.12-.3.26-.45.4L24,3.21Zm-2.11,1c.23.1.47.2.72.29a19.18,19.18,0,0,0-2.7,3.7c-.39.69-.75,1.41-1.08,2.15a17.24,17.24,0,0,1-3-1.21A22.21,22.21,0,0,1,22.57,3.92ZM15.76,9.78a17.76,17.76,0,0,0,3.31,1.37,28.66,28.66,0,0,0-1.57,5.91,44.42,44.42,0,0,1-4.9-1.69A22.42,22.42,0,0,1,15.76,9.78ZM12.2,16.47a45.1,45.1,0,0,0,5.13,1.76,35.27,35.27,0,0,0-.2,5.84A32.94,32.94,0,0,1,11,23,23.21,23.21,0,0,1,12.2,16.47Z"/></g></g></svg>