<svg xmlns="http://www.w3.org/2000/svg" width="105" height="105" fill="none" viewBox="0 0 105 105"><path fill="#2F2F2F" fill-rule="evenodd" d="M52.504 105.008c28.997 0 52.504-23.507 52.504-52.504C105.008 23.507 81.501 0 52.504 0 23.507 0 0 23.507 0 52.504c0 28.997 23.507 52.504 52.504 52.504Zm-29.105-29.37v-3.167l9.25-38.113H23.76v-4.99h14.918v3.167l-8.89 38.112h9.071v4.991h-15.46Zm24.42-46.27h-5.847v46.27h5.848v-46.27Zm4.01 46.27v-46.27h5.847v41.28h7.734v4.99H51.828Zm16.198-46.27v46.27h13.581v-4.99h-7.734v-41.28h-5.847Z" clip-rule="evenodd"/></svg>