<svg width="166" height="186" viewBox="0 0 166 186" fill="none" xmlns="http://www.w3.org/2000/svg">
    <path d="M83.1801 0.796875C76.2416 0.810257 69.5914 3.57326 64.6862 8.48056C59.7811 13.3879 57.021 20.0393 57.0107 26.9778V47.4202H3.48047C2.71797 47.4202 1.9867 47.7231 1.44754 48.2622C0.908371 48.8014 0.60547 49.5327 0.60547 50.2952V182.488C0.605167 182.865 0.679325 183.239 0.8237 183.588C0.968076 183.937 1.17984 184.254 1.44686 184.521C1.71389 184.788 2.03095 185 2.3799 185.144C2.72884 185.289 3.10283 185.363 3.48047 185.363H162.87C163.248 185.363 163.622 185.289 163.971 185.144C164.32 185 164.637 184.788 164.904 184.521C165.171 184.254 165.383 183.937 165.527 183.588C165.672 183.239 165.746 182.865 165.745 182.488V50.2952C165.745 49.5327 165.443 48.8014 164.903 48.2622C164.364 47.7231 163.633 47.4202 162.87 47.4202H109.363V26.9778C109.353 20.0369 106.591 13.3834 101.683 8.4757C96.7747 3.568 90.1209 0.806609 83.1801 0.796875ZM62.7607 26.9778C62.8178 21.5964 64.9956 16.4548 68.8211 12.6697C72.6467 8.88449 77.8111 6.76136 83.1927 6.76136C88.5744 6.76136 93.7388 8.88449 97.5643 12.6697C101.39 16.4548 103.568 21.5964 103.625 26.9778V47.411H62.7607V26.9778ZM6.35547 179.613V160.688H159.995V179.613H6.35547ZM159.995 154.938H6.35547V53.1702H57.0107V64.8289C57.0107 65.5914 57.3136 66.3226 57.8527 66.8618C58.3919 67.401 59.1232 67.7039 59.8857 67.7039C60.6482 67.7039 61.3794 67.401 61.9186 66.8618C62.4578 66.3226 62.7607 65.5914 62.7607 64.8289V53.1702H103.613V64.8289C103.613 65.5914 103.916 66.3226 104.455 66.8618C104.995 67.401 105.726 67.7039 106.488 67.7039C107.251 67.7039 107.982 67.401 108.521 66.8618C109.06 66.3226 109.363 65.5914 109.363 64.8289V53.1702H160.007L159.995 154.938Z" fill="#1E1E1E"/>
</svg>