<svg width="72" height="75" viewBox="0 0 72 75" fill="none" xmlns="http://www.w3.org/2000/svg">
<mask id="path-1-inside-1_4079_98" fill="white">
<path d="M0.311616 52.1165L10.1554 66.0545C10.6975 66.825 11.7664 67.0108 12.5394 66.467L25.7386 57.208V73.2955C25.7386 74.2381 26.5047 75 27.4487 75H44.5505C45.4945 75 46.2607 74.2381 46.2607 73.2955V57.208L59.4599 66.4688C60.2346 67.0108 61.2983 66.8267 61.8439 66.0563L71.6876 52.1182C72.2315 51.3494 72.0451 50.2858 71.2738 49.7438L53.8248 37.5L71.2721 25.2563C72.0451 24.7159 72.2298 23.6523 71.6859 22.8818L61.8421 8.94375C61.2983 8.1733 60.2329 7.9892 59.4582 8.53125L46.2607 17.792V1.70455C46.2607 0.761932 45.4945 0 44.5505 0H27.4487C26.5047 0 25.7386 0.761932 25.7386 1.70455V17.792L12.5394 8.53125C11.7664 7.99091 10.6992 8.175 10.1571 8.94545L0.313326 22.8835C-0.230511 23.6523 -0.0441011 24.7159 0.72719 25.258L18.1744 37.5L0.72719 49.7438C-0.0458112 50.2841 -0.232221 51.3477 0.311616 52.1165ZM22.1301 38.8926C23.464 37.8545 22.6893 36.4432 22.1301 36.1057L4.09453 23.4511L11.9699 12.3017L26.4654 22.471C27.8284 23.3659 29.1846 22.2375 29.1606 21.0784V3.40909H42.8421V21.0767C42.7737 22.0125 44.0597 23.4051 45.5373 22.4693L60.0328 12.3L67.9081 23.4494L49.8692 36.1074C49.1475 36.5949 48.6686 38.0182 49.8692 38.8943L67.9047 51.5506L60.0294 62.7L45.5339 52.5307C44.778 52.0091 42.9823 52.05 42.8386 53.9233V71.5909H29.1572V53.9233C29.0802 52.2256 27.2572 51.9136 26.462 52.5307L11.9665 62.7L4.09111 51.5506L22.1301 38.8926Z"/>
</mask>
<path d="M0.311616 52.1165L10.1554 66.0545C10.6975 66.825 11.7664 67.0108 12.5394 66.467L25.7386 57.208V73.2955C25.7386 74.2381 26.5047 75 27.4487 75H44.5505C45.4945 75 46.2607 74.2381 46.2607 73.2955V57.208L59.4599 66.4688C60.2346 67.0108 61.2983 66.8267 61.8439 66.0563L71.6876 52.1182C72.2315 51.3494 72.0451 50.2858 71.2738 49.7438L53.8248 37.5L71.2721 25.2563C72.0451 24.7159 72.2298 23.6523 71.6859 22.8818L61.8421 8.94375C61.2983 8.1733 60.2329 7.9892 59.4582 8.53125L46.2607 17.792V1.70455C46.2607 0.761932 45.4945 0 44.5505 0H27.4487C26.5047 0 25.7386 0.761932 25.7386 1.70455V17.792L12.5394 8.53125C11.7664 7.99091 10.6992 8.175 10.1571 8.94545L0.313326 22.8835C-0.230511 23.6523 -0.0441011 24.7159 0.72719 25.258L18.1744 37.5L0.72719 49.7438C-0.0458112 50.2841 -0.232221 51.3477 0.311616 52.1165ZM22.1301 38.8926C23.464 37.8545 22.6893 36.4432 22.1301 36.1057L4.09453 23.4511L11.9699 12.3017L26.4654 22.471C27.8284 23.3659 29.1846 22.2375 29.1606 21.0784V3.40909H42.8421V21.0767C42.7737 22.0125 44.0597 23.4051 45.5373 22.4693L60.0328 12.3L67.9081 23.4494L49.8692 36.1074C49.1475 36.5949 48.6686 38.0182 49.8692 38.8943L67.9047 51.5506L60.0294 62.7L45.5339 52.5307C44.778 52.0091 42.9823 52.05 42.8386 53.9233V71.5909H29.1572V53.9233C29.0802 52.2256 27.2572 51.9136 26.462 52.5307L11.9665 62.7L4.09111 51.5506L22.1301 38.8926Z" fill="white" fill-opacity="0.3"/>
<path d="M0.311616 52.1165L9.02442 45.963L9.0196 45.9562L0.311616 52.1165ZM10.1554 66.0545L18.8789 59.9163L18.8736 59.9087L18.8682 59.9011L10.1554 66.0545ZM12.5394 66.467L6.41372 57.7347L6.40243 57.7426L12.5394 66.467ZM25.7386 57.208H36.4052V36.6959L19.6129 48.4756L25.7386 57.208ZM46.2607 57.208L52.3871 48.4761L35.594 36.6938V57.208H46.2607ZM59.4599 66.4688L53.3334 75.2006L53.3448 75.2085L59.4599 66.4688ZM61.8439 66.0563L70.5491 72.2203L70.5567 72.2097L61.8439 66.0563ZM71.6876 52.1182L62.9797 45.9579L62.9748 45.9647L71.6876 52.1182ZM71.2738 49.7438L77.407 41.0167L77.4006 41.0122L71.2738 49.7438ZM53.8248 37.5L47.6976 28.7687L35.255 37.5004L47.698 46.2315L53.8248 37.5ZM71.2721 25.2563L65.1609 16.5137L65.1529 16.5194L65.1448 16.525L71.2721 25.2563ZM71.6859 22.8818L80.4003 16.7306L80.3987 16.7284L71.6859 22.8818ZM61.8421 8.94375L53.1277 15.0949L53.1293 15.0972L61.8421 8.94375ZM59.4582 8.53125L53.3431 -0.208551L53.3372 -0.20438L53.3312 -0.2002L59.4582 8.53125ZM46.2607 17.792H35.594V38.3078L52.3877 26.5235L46.2607 17.792ZM25.7386 17.792L19.6121 26.5239L36.4052 38.3062V17.792H25.7386ZM12.5394 8.53125L18.6658 -0.200574L18.6582 -0.205924L18.6506 -0.211261L12.5394 8.53125ZM10.1571 8.94545L18.8699 15.0989L18.8753 15.0913L18.8806 15.0837L10.1571 8.94545ZM0.313326 22.8835L9.0213 29.0438L9.02613 29.037L0.313326 22.8835ZM0.72719 25.258L-5.406 33.985L-5.39947 33.9896L0.72719 25.258ZM18.1744 37.5L24.3017 46.2313L36.7445 37.4994L24.3011 28.7683L18.1744 37.5ZM0.72719 49.7438L6.83835 58.4863L6.84639 58.4806L6.85442 58.475L0.72719 49.7438ZM22.1301 38.8926L28.257 47.6241L28.4729 47.4726L28.681 47.3107L22.1301 38.8926ZM22.1301 36.1057L16.0035 44.8374L16.3042 45.0483L16.6186 45.2381L22.1301 36.1057ZM4.09453 23.4511L-4.61788 17.2971L-10.7913 26.037L-2.03203 32.1829L4.09453 23.4511ZM11.9699 12.3017L18.0959 3.5696L9.39178 -2.53681L3.25749 6.14771L11.9699 12.3017ZM26.4654 22.471L20.3394 31.2031L20.4739 31.2975L20.6112 31.3876L26.4654 22.471ZM29.1606 21.0784H18.494V21.1886L18.4962 21.2987L29.1606 21.0784ZM29.1606 3.40909V-7.25758H18.494V3.40909H29.1606ZM42.8421 3.40909H53.5087V-7.25758H42.8421V3.40909ZM42.8421 21.0767L53.4803 21.8543L53.5087 21.466V21.0767H42.8421ZM45.5373 22.4693L51.2445 31.4808L51.4572 31.346L51.6633 31.2014L45.5373 22.4693ZM60.0328 12.3L68.7452 6.14601L62.6109 -2.53851L53.9068 3.56789L60.0328 12.3ZM67.9081 23.4494L74.035 32.1809L82.7937 26.035L76.6206 17.2954L67.9081 23.4494ZM49.8692 36.1074L55.8399 44.9464L55.9185 44.8933L55.9961 44.8389L49.8692 36.1074ZM49.8692 38.8943L43.5812 47.5105L43.6611 47.5688L43.7421 47.6257L49.8692 38.8943ZM67.9047 51.5506L76.6171 57.7046L82.7901 48.9653L74.0318 42.8192L67.9047 51.5506ZM60.0294 62.7L53.9033 71.4321L62.6075 77.5385L68.7418 68.854L60.0294 62.7ZM45.5339 52.5307L51.6599 43.7986L51.626 43.7748L51.5919 43.7513L45.5339 52.5307ZM42.8386 53.9233L32.2032 53.1077L32.172 53.5149V53.9233H42.8386ZM42.8386 71.5909V82.2576H53.5053V71.5909H42.8386ZM29.1572 71.5909H18.4905V82.2576H29.1572V71.5909ZM29.1572 53.9233H39.8239V53.6817L39.8129 53.4403L29.1572 53.9233ZM26.462 52.5307L32.588 61.2628L32.7981 61.1154L33.001 60.958L26.462 52.5307ZM11.9665 62.7L3.25407 68.854L9.38836 77.5385L18.0925 71.4321L11.9665 62.7ZM4.09111 51.5506L-2.03578 42.8191L-10.7944 48.965L-4.6213 57.7046L4.09111 51.5506ZM-8.40119 58.2699L1.4426 72.208L18.8682 59.9011L9.02442 45.963L-8.40119 58.2699ZM1.4319 72.1928C5.37217 77.7926 13.0975 79.1158 18.6764 75.1915L6.40243 57.7426C10.4353 54.9058 16.0229 55.8574 18.8789 59.9163L1.4319 72.1928ZM18.6651 75.1994L31.8642 65.9403L19.6129 48.4756L6.41373 57.7347L18.6651 75.1994ZM15.0719 57.208V73.2955H36.4052V57.208H15.0719ZM15.0719 73.2955C15.0719 80.1692 20.6538 85.6667 27.4487 85.6667V64.3333C32.3556 64.3333 36.4052 68.3069 36.4052 73.2955H15.0719ZM27.4487 85.6667H44.5505V64.3333H27.4487V85.6667ZM44.5505 85.6667C51.3454 85.6667 56.9274 80.1692 56.9274 73.2955H35.594C35.594 68.3069 39.6437 64.3333 44.5505 64.3333V85.6667ZM56.9274 73.2955V57.208H35.594V73.2955H56.9274ZM40.1343 65.9398L53.3334 75.2006L65.5863 57.7369L52.3871 48.4761L40.1343 65.9398ZM53.3448 75.2085C58.9151 79.106 66.6043 77.7915 70.5491 72.2203L53.1386 59.8922C55.9924 55.8619 61.554 54.9156 65.5749 57.729L53.3448 75.2085ZM70.5567 72.2097L80.4005 58.2716L62.9748 45.9647L53.1311 59.9028L70.5567 72.2097ZM80.3956 58.2785C84.3677 52.6636 82.9823 44.9349 77.407 41.0167L65.1406 58.4708C61.1078 55.6367 60.0952 50.0352 62.9797 45.9579L80.3956 58.2785ZM77.4006 41.0122L59.9517 28.7685L47.698 46.2315L65.147 58.4753L77.4006 41.0122ZM59.9521 46.2313L77.3993 33.9875L65.1448 16.525L47.6976 28.7687L59.9521 46.2313ZM77.3832 33.9988C83.0113 30.0647 84.3446 22.3185 80.4003 16.7306L62.9715 29.033C60.1149 24.986 61.0789 19.3672 65.1609 16.5137L77.3832 33.9988ZM80.3987 16.7284L70.5549 2.79031L53.1293 15.0972L62.9731 29.0353L80.3987 16.7284ZM70.5566 2.79258C66.6074 -2.80218 58.9049 -4.09999 53.3431 -0.208551L65.5732 17.2711C61.5608 20.0784 55.9892 19.1488 53.1277 15.0949L70.5566 2.79258ZM53.3312 -0.2002L40.1338 9.0606L52.3877 26.5235L65.5851 17.2627L53.3312 -0.2002ZM56.9274 17.792V1.70455H35.594V17.792H56.9274ZM56.9274 1.70455C56.9274 -5.16919 51.3454 -10.6667 44.5505 -10.6667V10.6667C39.6437 10.6667 35.594 6.69305 35.594 1.70455H56.9274ZM44.5505 -10.6667H27.4487V10.6667H44.5505V-10.6667ZM27.4487 -10.6667C20.6538 -10.6667 15.0719 -5.16919 15.0719 1.70455H36.4052C36.4052 6.69305 32.3556 10.6667 27.4487 10.6667V-10.6667ZM15.0719 1.70455V17.792H36.4052V1.70455H15.0719ZM31.865 9.06022L18.6658 -0.200574L6.41297 17.2631L19.6121 26.5239L31.865 9.06022ZM18.6506 -0.211261C13.0934 -4.09578 5.38194 -2.80406 1.43361 2.8072L18.8806 15.0837C16.0165 19.1541 10.4394 20.0776 6.42823 17.2738L18.6506 -0.211261ZM1.44431 2.79202L-8.39948 16.7301L9.02613 29.037L18.8699 15.0989L1.44431 2.79202ZM-8.39464 16.7232C-12.3668 22.3381 -10.9814 30.0668 -5.406 33.985L6.86038 16.5309C10.8932 19.365 11.9057 24.9665 9.02129 29.0438L-8.39464 16.7232ZM-5.39947 33.9896L12.0478 46.2317L24.3011 28.7683L6.85385 16.5263L-5.39947 33.9896ZM12.0472 28.7687L-5.40004 41.0125L6.85442 58.475L24.3017 46.2313L12.0472 28.7687ZM-5.38397 41.0012C-10.9896 44.9197 -12.3665 52.6647 -8.39637 58.2767L9.0196 45.9562C11.902 50.0307 10.898 55.6485 6.83835 58.4863L-5.38397 41.0012ZM28.681 47.3107C32.5573 44.2941 34.1335 39.6575 33.3296 35.3008C32.7309 32.0566 30.7686 28.8605 27.6416 26.9733L16.6186 45.2381C15.0868 44.3137 14.1766 43.203 13.6734 42.4469C13.1061 41.5943 12.5955 40.5002 12.3504 39.1721C12.0945 37.7851 12.125 36.0805 12.7826 34.3251C13.4495 32.5447 14.5503 31.2752 15.5792 30.4746L28.681 47.3107ZM28.2566 27.374L10.2211 14.7194L-2.03203 32.1829L16.0035 44.8374L28.2566 27.374ZM12.8069 29.6051L20.6823 18.4557L3.25749 6.14771L-4.61788 17.2971L12.8069 29.6051ZM5.84389 21.0338L20.3394 31.2031L32.5914 13.7389L18.0959 3.5696L5.84389 21.0338ZM20.6112 31.3876C24.8532 34.1728 30.0196 34.0587 33.9686 31.6014C37.3761 29.4811 39.9216 25.5349 39.825 20.8581L18.4962 21.2987C18.4236 17.781 20.303 14.9786 22.6977 13.4885C25.6338 11.6615 29.4406 11.6642 32.3196 13.5544L20.6112 31.3876ZM39.8273 21.0784V3.40909H18.494V21.0784H39.8273ZM29.1606 14.0758H42.8421V-7.25758H29.1606V14.0758ZM32.1754 3.40909V21.0767H53.5087V3.40909H32.1754ZM32.2038 20.2991C31.8358 25.3328 34.6557 29.2284 37.4955 31.2151C41.2552 33.8453 46.6071 34.4177 51.2445 31.4808L39.8301 13.4579C41.1312 12.6339 42.897 12.0364 44.9255 12.1206C46.8873 12.202 48.5257 12.8961 49.7244 13.7347C50.8858 14.5472 51.7821 15.5887 52.4064 16.7416C52.9911 17.8215 53.6461 19.5865 53.4803 21.8543L32.2038 20.2991ZM51.6633 31.2014L66.1588 21.0321L53.9068 3.56789L39.4113 13.7372L51.6633 31.2014ZM51.3204 18.454L59.1957 29.6034L76.6206 17.2954L68.7452 6.14601L51.3204 18.454ZM61.7813 14.7179L43.7423 27.3759L55.9961 44.8389L74.035 32.1809L61.7813 14.7179ZM43.8985 27.2684C40.8165 29.3502 38.9432 32.6926 38.55 36.1497C38.0766 40.3123 39.7437 44.71 43.5812 47.5105L56.1571 30.2781C58.7941 32.2025 60.1004 35.4504 59.7467 38.5605C59.4732 40.9651 58.2002 43.3521 55.8399 44.9464L43.8985 27.2684ZM43.7421 47.6257L61.7776 60.2819L74.0318 42.8192L55.9963 30.163L43.7421 47.6257ZM59.1923 45.3966L51.3169 56.546L68.7418 68.854L76.6171 57.7046L59.1923 45.3966ZM66.1554 53.9679L51.6599 43.7986L39.4079 61.2628L53.9033 71.4321L66.1554 53.9679ZM51.5919 43.7513C48.4534 41.5856 44.3736 40.9989 40.7131 42.1674C38.6227 42.8346 36.4512 44.1505 34.7758 46.3173C33.1 48.4845 32.3712 50.917 32.2032 53.1077L53.4741 54.7389C53.3779 55.9929 52.9274 57.7179 51.6524 59.3668C50.3776 61.0154 48.7292 62.0024 47.2003 62.4905C44.6625 63.3005 41.8584 62.9541 39.4759 61.3101L51.5919 43.7513ZM32.172 53.9233V71.5909H53.5053V53.9233H32.172ZM42.8386 60.9242H29.1572V82.2576H42.8386V60.9242ZM39.8239 71.5909V53.9233H18.4905V71.5909H39.8239ZM39.8129 53.4403C39.5686 48.0509 36.1255 43.9941 31.844 42.3788C28.4532 41.0997 23.7579 41.1278 19.923 44.1034L33.001 60.958C29.9613 63.3166 26.5751 63.1921 24.3139 62.3391C22.9313 61.8175 21.4497 60.8563 20.2884 59.3111C19.0903 57.7169 18.5714 55.9489 18.5015 54.4063L39.8129 53.4403ZM20.3359 43.7986L5.84047 53.9679L18.0925 71.4321L32.588 61.2628L20.3359 43.7986ZM20.6789 56.546L12.8035 45.3966L-4.6213 57.7046L3.25407 68.854L20.6789 56.546ZM10.218 60.2821L28.257 47.6241L16.0032 30.1611L-2.03578 42.8191L10.218 60.2821Z" fill="#121212" mask="url(#path-1-inside-1_4079_98)"/>
</svg>
