<svg width="63" height="63" viewBox="0 0 63 63" fill="none" xmlns="http://www.w3.org/2000/svg">
<path d="M9.12221 57.0854H3.45451C2.09888 57.0854 1 58.1843 1 59.5399C1 60.8955 2.09888 61.9944 3.45451 61.9944H33.8904C35.246 61.9944 36.3449 60.8955 36.3449 59.5399C36.3449 58.1843 35.246 57.0854 33.8904 57.0854H14.0296" stroke="#E8BF96" stroke-width="2" stroke-miterlimit="10" stroke-linecap="round" stroke-linejoin="round"/>
<path d="M7.11857 57.0854C5.76294 57.0854 4.66406 55.9866 4.66406 54.6309C4.66406 53.2753 5.76294 52.1764 7.11857 52.1764H30.2144C31.57 52.1764 32.6689 53.2753 32.6689 54.6309C32.6689 55.9866 31.57 57.0854 30.2144 57.0854" stroke="#E8BF96" stroke-width="2" stroke-miterlimit="10" stroke-linecap="round" stroke-linejoin="round"/>
<path d="M39.8984 27.6017L56.85 44.5532C58.0283 45.7316 59.9386 45.7316 61.1169 44.5532C62.2952 43.3749 62.2952 41.4646 61.1169 40.2864L44.1245 23.2939" stroke="#E8BF96" stroke-width="2" stroke-miterlimit="10" stroke-linecap="round" stroke-linejoin="round"/>
<path d="M22.1328 20.9287L37.4919 5.56964" stroke="#E8BF96" stroke-width="2" stroke-miterlimit="10" stroke-linecap="round" stroke-linejoin="round"/>
<path d="M46.4686 14.5505L31.1094 29.9097" stroke="#E8BF96" stroke-width="2" stroke-miterlimit="10" stroke-linecap="round" stroke-linejoin="round"/>
<path d="M31.9123 33.8315C32.7749 32.9689 32.7749 31.5702 31.9123 30.7076L21.3256 20.1209C20.463 19.2583 19.0643 19.2583 18.2017 20.1209C17.339 20.9835 17.339 22.3822 18.2017 23.2448L28.7883 33.8315C29.6511 34.6942 31.0497 34.6942 31.9123 33.8315Z" stroke="#E8BF96" stroke-width="2" stroke-miterlimit="10" stroke-linecap="round" stroke-linejoin="round"/>
<path d="M40.7941 2.63918L39.8021 1.64719C38.9396 0.784555 37.5409 0.784555 36.6782 1.64719C35.8156 2.50983 35.8156 3.90853 36.6782 4.77116L47.265 15.3578C48.1275 16.2206 49.5262 16.2206 50.3888 15.3578C51.2515 14.4952 51.2515 13.0966 50.3888 12.234L44.1441 5.98909" stroke="#E8BF96" stroke-width="2" stroke-miterlimit="10" stroke-linecap="round" stroke-linejoin="round"/>
<path d="M34.3594 26.6686L35.0908 27.4001C36.4122 28.7215 38.5545 28.7215 39.8758 27.4001L43.9619 23.3141C45.2832 21.9927 45.2832 19.8504 43.9619 18.529L43.2304 17.7976L34.3594 26.6686Z" stroke="#E8BF96" stroke-width="2" stroke-miterlimit="10" stroke-linecap="round" stroke-linejoin="round"/>
<path d="M7.16406 43.1109L12.5022 46.7227" stroke="#E8BF96" stroke-width="2" stroke-miterlimit="10" stroke-linecap="round" stroke-linejoin="round"/>
<path d="M30.4319 43.1109L25.0938 46.7227" stroke="#E8BF96" stroke-width="2" stroke-miterlimit="10" stroke-linecap="round" stroke-linejoin="round"/>
<path d="M18.8047 42.7275V36.5908" stroke="#E8BF96" stroke-width="2" stroke-miterlimit="10" stroke-linecap="round" stroke-linejoin="round"/>
</svg>
