<svg width="56" height="56" viewBox="0 0 56 56" fill="none" xmlns="http://www.w3.org/2000/svg">
<path d="M24.2762 1.49038C15.127 6.64098 6.43737 11.4926 0.455112 14.9484C0.175902 15.1096 0.00379751 15.4076 0.003528 15.7302V18.0353C0.003528 20.6764 1.90475 22.8812 4.40824 23.3585V26.1754C4.40824 27.5525 5.45935 28.694 6.79493 28.8564V45.7737H3.61444C1.62864 45.7737 -3.61268e-08 47.4015 0 49.3884V52.3836C0 54.3705 1.62864 56 3.61444 56H52.3909C54.3767 56 55.9965 54.3705 55.9965 52.3836V49.3884C55.9965 47.4015 54.3767 45.7737 52.3909 45.7737H49.3973V28.8476C50.6954 28.6495 51.7099 27.5247 51.7099 26.1754V23.3355C54.1566 22.8136 56 20.6359 56 18.0353V15.7302C55.9998 15.4041 55.8239 15.103 55.5396 14.9431C47.9754 10.6904 41.0251 6.84524 31.9355 1.55216C28.6083 -0.560538 27.6416 -0.453517 24.2762 1.49038ZM31.027 3.11417H31.0288L31.0306 3.11593C39.9582 8.31461 46.8062 12.1052 54.1937 16.2562V18.0353C54.1937 20.0535 52.598 21.65 50.581 21.65H5.42254C3.4055 21.65 1.80987 20.0535 1.80987 18.0353V16.2562C7.75998 12.8252 16.1878 8.11816 25.1705 3.06122C28.2917 1.2582 28.1888 1.47988 31.027 3.11417ZM27.522 8.14965C26.2577 8.14965 25.0867 8.60042 24.1756 9.34454C23.1858 10.0988 24.3765 11.5612 25.3152 10.7442C25.9167 10.2529 26.6814 9.95699 27.522 9.95699C29.4587 9.95699 31.0094 11.5085 31.0094 13.4464C31.0094 15.3842 29.4587 16.9357 27.522 16.9357C25.5852 16.9357 24.0345 15.3842 24.0345 13.4464C24.0345 12.2412 22.2282 12.2412 22.2282 13.4464C22.2282 16.361 24.609 18.7431 27.522 18.7431C30.4349 18.7431 32.8157 16.361 32.8157 13.4464C32.8157 10.5318 30.4349 8.14965 27.522 8.14965ZM6.21458 23.4573H17.4407V26.1754C17.4407 26.6916 17.057 27.0826 16.541 27.0826H7.11422C6.59825 27.0826 6.21458 26.6916 6.21458 26.1754V23.4573ZM19.2488 23.4573H20.5824V26.1754C20.5824 27.5271 21.5946 28.6543 22.895 28.8493V42.9445C22.895 44.1496 24.7013 44.1496 24.7013 42.9445V28.8899H31.3022V45.7737H17.0156V28.8405C18.2773 28.6118 19.2488 27.4994 19.2488 26.1754V23.4573ZM22.3817 23.4573H33.6166V26.1754C33.6166 26.6916 33.2312 27.0826 32.7152 27.0826H23.2884C22.7724 27.0826 22.3817 26.6916 22.3817 26.1754V23.4573ZM35.4229 23.4573H36.8623V26.1754C36.8623 27.5271 37.8763 28.6543 39.1767 28.8493V45.7737H33.1086V28.8493C34.409 28.6543 35.4229 27.5271 35.4229 26.1754V23.4573ZM38.6687 23.4573H49.9036V26.1754C49.9036 26.6916 49.5129 27.0826 48.9969 27.0826H39.5701C39.0541 27.0826 38.6687 26.6916 38.6687 26.1754V23.4573ZM8.60127 28.8899H15.2075V45.7737H8.60127V28.8899ZM40.9831 28.8899H47.591V45.7737H40.9831V28.8899ZM3.61444 47.5811H52.3909C53.4072 47.5811 54.1901 48.3715 54.1901 49.3884V52.3836C54.1901 53.4005 53.4072 54.1927 52.3909 54.1927H3.61444C2.59811 54.1927 1.80634 53.4005 1.80634 52.3836V49.3884C1.80634 48.3715 2.59811 47.5811 3.61444 47.5811Z" fill="#E8BF96"/>
</svg>
