<svg width="60" height="60" viewBox="0 0 60 60" fill="none" xmlns="http://www.w3.org/2000/svg">
<path d="M22.2656 25.8618V27.9311C22.2656 27.9311 22.2536 29.9593 23.2157 32.0162C24.1779 34.073 26.138 36.2061 30.0094 36.2081C33.8799 36.2102 35.8409 34.073 36.8031 32.0162C37.7652 29.9593 37.7532 27.9311 37.7532 27.9311V25.8618H35.8172V27.9311C35.8172 27.9311 35.8055 29.5288 35.0743 31.0922C34.3429 32.6557 32.9121 34.1389 30.0094 34.1389C27.1057 34.1389 25.6759 32.6557 24.9445 31.0922C24.2132 29.5288 24.2016 27.9311 24.2016 27.9311V25.8618H22.2656Z" fill="#E8BF96"/>
<path d="M21.2919 19.6543C20.7544 19.6521 20.3183 20.1183 20.3203 20.6928V23.7928C20.3203 25.3338 21.113 26.1444 21.8276 26.5264C22.5423 26.9083 23.2278 26.9005 23.2278 26.9005H36.7723C36.7723 26.9005 37.4578 26.9084 38.1724 26.5264C38.8871 26.1444 39.6798 25.3215 39.6798 23.7928V20.6928C39.6818 20.1183 39.2456 19.6521 38.7082 19.6543H21.2919ZM22.2563 21.7236H37.7438V23.7928C37.7438 24.3248 37.5611 24.5433 37.3081 24.6786C37.055 24.8138 36.7723 24.8313 36.7723 24.8313H23.2278C23.2278 24.8313 22.9451 24.8138 22.692 24.6786C22.439 24.5433 22.2563 24.345 22.2563 23.7928V21.7236Z" fill="#E8BF96"/>
<path d="M30.0051 10.3462C25.7235 10.3462 23.4955 12.4166 22.3899 14.4847C21.2843 16.5528 21.2969 18.6232 21.2969 18.6232V20.6925H23.2328V18.6232C23.2328 18.6232 23.2388 17.0678 24.0686 15.5155C24.8985 13.9633 26.5447 12.4155 30.0051 12.4155C33.4655 12.4155 35.1116 13.9633 35.9415 15.5155C36.7713 17.0678 36.7773 18.6232 36.7773 18.6232V20.6925H38.7132V18.6232C38.7132 18.6232 38.726 16.5528 37.6202 14.4847C36.5146 12.4166 34.3079 10.3462 30.0051 10.3462Z" fill="#E8BF96"/>
<path d="M25.1719 34.1387V39.308C25.1719 39.4196 25.1887 39.5305 25.2219 39.6364C25.2219 39.6364 26.3918 43.4466 30.0082 43.4466C33.6246 43.4466 34.7944 39.6364 34.7944 39.6364C34.8276 39.5305 34.8445 39.4196 34.8445 39.308V34.1387H32.9085V39.0713C32.8557 39.2422 32.0808 41.3773 30.0082 41.3773C27.928 41.3773 27.1606 39.2422 27.1078 39.0713V34.1387H25.1719Z" fill="#E8BF96"/>
<path d="M33.875 36.208V38.2773C41.6986 38.2773 45.2828 43.5329 45.4835 43.8513V52.7545H47.4195V43.4466C47.4209 43.2434 47.3662 43.0442 47.2623 42.8739C47.2623 42.8739 43.1484 36.208 33.875 36.208Z" fill="#E8BF96"/>
<path d="M0.971551 7.81112e-06C0.434129 -0.00220029 -0.00205864 0.464025 7.30864e-06 1.03846V5.17698C7.30864e-06 6.69354 0.792643 7.5286 1.50733 7.91055C2.22202 8.2925 2.9075 8.27706 2.9075 8.27706H57.0997C57.0997 8.27706 57.7851 8.2925 58.4998 7.91055C59.2145 7.52859 60 6.71777 60 5.17698V1.03846C60.002 0.46701 59.5702 0.00202888 59.0356 7.81112e-06H0.971551ZM1.93595 2.06927H58.064V5.17698C58.064 5.70775 57.8885 5.92748 57.6354 6.06272C57.3824 6.19796 57.0997 6.2078 57.0997 6.2078H2.9075C2.9075 6.2078 2.62477 6.19795 2.37172 6.06272C2.11867 5.92748 1.93595 5.70657 1.93595 5.17698V2.06927Z" fill="#E8BF96"/>
<path d="M5.8125 7.24609V52.7546H7.74844V7.24609H5.8125Z" fill="#E8BF96"/>
<path d="M52.2656 7.24609V52.7546H54.2016V7.24609H52.2656Z" fill="#E8BF96"/>
<path d="M26.1304 36.208V38.2773C18.3068 38.2773 14.7226 43.5329 14.5219 43.8513V52.7545H12.586V43.4466C12.5846 43.2434 12.6393 43.0442 12.7431 42.8739C12.7431 42.8739 16.8571 36.208 26.1304 36.208Z" fill="#E8BF96"/>
<path d="M0.971551 59.9998C0.434129 60.002 -0.00205864 59.5358 7.30864e-06 58.9613V54.8228C7.30864e-06 53.3063 0.792643 52.4712 1.50733 52.0893C2.22202 51.7073 2.9075 51.7227 2.9075 51.7227H57.0997C57.0997 51.7227 57.7851 51.7075 58.4998 52.0893C59.2145 52.4712 60 53.282 60 54.8228V58.9613C60.002 59.5328 59.5702 59.9978 59.0356 59.9998H0.971551ZM1.93595 57.9305H58.064V54.8228C58.064 54.2921 57.8885 54.0723 57.6354 53.9371C57.3824 53.8018 57.0997 53.792 57.0997 53.792H2.9075C2.9075 53.792 2.62477 53.8018 2.37172 53.9371C2.11867 54.0723 1.93595 54.2932 1.93595 54.8228V57.9305Z" fill="#E8BF96"/>
</svg>
