<svg width="59" height="58" viewBox="0 0 59 58" fill="none" xmlns="http://www.w3.org/2000/svg">
<path d="M29.25 14.4719C33.2476 14.4719 36.5 11.2174 36.5 7.21718C36.1017 -2.40714 22.3969 -2.40433 22 7.21723C22 11.2174 25.2524 14.4719 29.25 14.4719ZM29.25 2.38072C31.9151 2.38072 34.0833 4.5504 34.0833 7.21718C33.8178 13.6334 24.6813 13.6315 24.4167 7.21714C24.4167 4.5504 26.585 2.38072 29.25 2.38072Z" fill="#E8BF96"/>
<path d="M43.4531 16.8904C46.951 16.8904 49.7969 14.0427 49.7969 10.5426C49.4483 2.1213 37.4567 2.12375 37.1094 10.5426C37.1094 14.0427 39.9553 16.8904 43.4531 16.8904ZM43.4531 6.61294C45.6185 6.61294 47.3802 8.37584 47.3802 10.5426C47.1827 15.7485 39.7227 15.7471 39.5261 10.5425C39.5261 8.37584 41.2878 6.61294 43.4531 6.61294Z" fill="#E8BF96"/>
<path d="M14.4531 16.8904C17.951 16.8904 20.7969 14.0427 20.7969 10.5426C20.4483 2.1213 8.45671 2.12375 8.10938 10.5426C8.10939 14.0427 10.9553 16.8904 14.4531 16.8904ZM14.4531 6.61294C16.6185 6.61294 18.3802 8.37584 18.3802 10.5426C18.1827 15.7485 10.7227 15.7471 10.526 10.5425C10.5261 8.37584 12.2878 6.61294 14.4531 6.61294Z" fill="#E8BF96"/>
<path d="M57.0417 35.0268C57.709 35.0268 58.25 34.4854 58.25 33.8177V28.9812C58.25 28.3135 57.709 27.7721 57.0417 27.7721H55.8333V26.2123C55.8463 21.7049 52.3114 17.8782 47.8328 17.4415C45.7507 19.1921 42.5549 19.4498 40.2956 17.9194C40.2668 17.8904 40.2382 17.8605 40.2085 17.8329C38.5814 16.1798 36.3715 15.1626 34.0639 14.9093C31.3101 17.1943 27.094 17.1962 24.3556 14.9014C21.8946 15.1441 19.5621 16.2174 17.9294 17.9486C15.6654 19.3364 12.6125 19.0331 10.5978 17.3376C5.90429 17.7448 2.3581 21.5957 2.66667 26.1488V27.7721H1.45833C0.791036 27.7721 0.25 28.3135 0.25 28.9812V33.8177C0.25 34.4854 0.791036 35.0268 1.45833 35.0268H4.47917V50.1407H1.45833C0.791036 50.1407 0.25 50.6821 0.25 51.3499V56.7909C0.25 57.4586 0.791036 58 1.45833 58H57.0417C57.709 58 58.25 57.4586 58.25 56.7909V51.3499C58.25 50.6821 57.709 50.1407 57.0417 50.1407H54.0208V35.0268H57.0417ZM48.4105 19.9882C51.2941 20.6305 53.4167 23.23 53.4167 26.2123V27.7721H43.1458C43.1468 25.7425 43.2972 23.1366 42.4509 21.2605C44.5149 21.5636 46.6612 21.1112 48.4105 19.9882ZM23.75 17.4359C26.9538 19.5801 31.4279 19.5866 34.6477 17.4527C36.1827 17.7704 37.5901 18.572 38.6624 19.7051C39.9952 21.1311 40.7292 22.9847 40.7292 24.9247V27.7721H17.7708V24.9247L17.7682 24.8432C17.4685 21.2302 20.2205 18.0576 23.75 17.4359ZM5.08068 26.0281C4.88037 23.0632 6.97017 20.4891 9.99986 19.8739C11.714 20.9781 13.8732 21.474 15.9078 21.1525C15.4659 22.3493 15.2706 23.6389 15.3542 24.9639V27.7721H5.08333V26.1096L5.08068 26.0281ZM2.66667 30.1904H55.8333V32.6086C52.1422 32.6086 6.36105 32.6086 2.66667 32.6086V30.1904ZM55.8333 55.5818H2.66667V52.559H55.8333V55.5818ZM51.6042 50.1407H6.89583V35.0268H51.6042V50.1407Z" fill="#E8BF96"/>
</svg>
