<svg width="58" height="58" viewBox="0 0 58 58" fill="none" xmlns="http://www.w3.org/2000/svg">
<path d="M35.7595 25.5316C35.4329 23.0459 33.7897 21.0067 31.555 20.1115V11.0216L43.4751 10.1046L42.3649 16.2091H42.0094C39.7414 16.2091 38.217 18.5546 39.1568 20.6061C40.5429 23.6306 43.5871 25.585 46.9124 25.585C50.2376 25.585 53.2818 23.6306 54.668 20.606C55.6089 18.5524 54.0811 16.2091 51.8154 16.2091H51.46L50.2551 9.58294C51.2304 9.50762 51.2077 9.51045 51.248 9.50546L51.2482 9.50659C52.6415 9.39762 53.733 8.21875 53.733 6.82284C53.733 5.42534 52.6411 4.24647 51.2471 4.13908L42.3942 3.45784C41.9269 3.42046 41.518 3.77173 41.482 4.23967C41.446 4.70751 41.796 5.11587 42.2638 5.15189L51.1166 5.83314C51.6309 5.8729 52.0338 6.30754 52.0338 6.82284C52.0338 7.35014 51.6099 7.78365 51.1102 7.81299C50.6779 7.84686 31.5971 9.31425 31.555 9.31742V4.32848L38.2945 4.84718C38.7593 4.88422 39.1706 4.53306 39.2067 4.06534C39.2427 3.59751 38.8927 3.18915 38.4249 3.15312L31.5551 2.62435V2.55797C31.5551 1.14892 30.4086 0.00244141 28.9995 0.00244141C27.5904 0.00244141 26.4439 1.1488 26.4439 2.55797V2.62423L6.75155 4.13908C5.35756 4.24647 4.2658 5.42534 4.2658 6.82284C4.2658 8.21875 5.35734 9.39762 6.75166 9.50659C7.10044 9.53344 7.42996 9.5587 7.74363 9.58283L6.5387 16.2091H6.18324C3.91566 16.2091 2.39073 18.5544 3.3307 20.6061C4.71676 23.6306 7.76096 25.585 11.0863 25.585C14.4114 25.585 17.4558 23.6306 18.8419 20.606C19.7828 18.5523 18.255 16.2091 15.9893 16.2091H15.6338L14.5235 10.104L26.4437 11.0214V20.1113C24.2082 21.0069 22.5648 23.0473 22.2389 25.5341C11.8219 28.0255 3.94681 35.9631 1.14197 45.6555C1.01158 46.1061 1.27121 46.5773 1.72183 46.7077C2.17165 46.8383 2.64356 46.5789 2.77406 46.1279C3.68888 42.9665 5.15446 40.0305 7.1325 37.3915L10.6539 38.566C12.1427 39.0619 13.0333 40.5966 12.7257 42.1358C12.2355 44.5865 13.6709 46.9763 16.0647 47.6949L20.5427 49.0382C22.7992 49.7144 23.6547 52.4784 22.1285 54.3088C21.6403 54.895 21.2979 55.5727 21.1177 56.2991H1.81834C1.61988 54.1729 1.6695 52.0236 1.96685 49.8991C2.03187 49.4343 1.7079 49.0049 1.24323 48.9398C0.777554 48.8754 0.348914 49.1987 0.284006 49.6635C-0.0686244 52.1831 -0.0929789 54.7358 0.211509 57.2507C0.263163 57.6775 0.625196 57.9983 1.05486 57.9983H56.9435C57.3733 57.9983 57.7352 57.6773 57.7868 57.2507C59.5661 42.5575 50.0312 28.9388 35.7595 25.5316ZM53.1232 19.8983C52.0131 22.3207 49.5753 23.886 46.9124 23.886C44.2496 23.886 41.8117 22.3207 40.7015 19.8984C40.2687 18.9534 40.9981 17.9083 42.0094 17.9083C42.3349 17.9083 51.9105 17.9085 51.8154 17.9083C52.8296 17.9082 53.5549 18.9565 53.1232 19.8983ZM49.733 16.2091H44.0919L45.2266 9.96978L48.5519 9.714L49.733 16.2091ZM56.0414 49.8762L50.8004 50.3133C48.5884 50.5019 46.5866 48.9973 46.1497 46.8122C45.6572 44.354 43.6651 42.4252 41.1925 42.0127L39.0029 41.6475C37.0415 41.3211 35.546 39.7096 35.366 37.7285L34.3876 26.9705C45.9315 29.2725 54.4623 38.5381 56.0414 49.8762ZM5.96495 6.82284C5.96495 6.30754 6.36788 5.87279 6.88204 5.83314L26.4439 4.32837V9.31742C24.901 9.19871 6.9201 7.81537 6.88306 7.81254C6.36822 7.77233 5.96495 7.33757 5.96495 6.82284ZM17.2973 19.8983C16.1871 22.3207 13.7492 23.886 11.0864 23.886C8.42351 23.886 5.98568 22.3207 4.87557 19.8984C4.44308 18.9547 5.171 17.9083 6.18335 17.9083H15.9894C17.0029 17.9082 17.7291 18.9557 17.2973 19.8983ZM8.26572 16.2091L9.44686 9.71378C11.2251 9.85039 12.2216 9.92708 12.772 9.96933L13.9068 16.2091H8.26572ZM28.143 2.55797C28.143 2.08583 28.5272 1.70159 28.9993 1.70159C29.4716 1.70159 29.8558 2.08583 29.8558 2.55797V19.6757C29.5751 19.6409 29.2898 19.6211 28.9993 19.6211C28.709 19.6211 28.4236 19.6409 28.143 19.6757C28.143 14.9819 28.143 10.3139 28.143 2.55797ZM27.4832 21.546C27.5134 21.5391 27.5428 21.5305 27.5717 21.5205C28.0248 21.3907 28.5035 21.3201 28.9995 21.3201C29.4954 21.3201 29.9741 21.3906 30.4271 21.5204C30.4561 21.5305 30.4855 21.5391 30.5158 21.546C32.208 22.0641 33.5214 23.4297 33.9606 25.1636C30.663 24.5967 27.3138 24.5962 24.0384 25.1628C24.478 23.4293 25.7912 22.064 27.4832 21.546ZM56.1807 56.2992H22.8993C23.0272 55.9751 23.2059 55.6706 23.4341 55.3966C25.7253 52.6485 24.4676 48.4405 21.0308 47.4106L16.5532 46.0675C15.0038 45.6025 14.0747 44.0553 14.392 42.4688C14.8673 40.091 13.4912 37.7201 11.1913 36.954L8.26606 35.9784C14.3361 28.8824 23.433 25.4331 32.6551 26.6809L33.6738 37.8822C33.9237 40.6326 36.0004 42.8701 38.7237 43.3234L40.9129 43.6884C42.6939 43.9856 44.1288 45.375 44.4835 47.1454C45.0917 50.1876 47.8776 52.2688 50.9431 52.0063L56.2224 51.5659C56.3412 53.1177 56.3315 54.6994 56.1807 56.2992Z" fill="#E8BF96"/>
</svg>
