<svg width="55" height="59" viewBox="0 0 55 59" fill="none" xmlns="http://www.w3.org/2000/svg">
<path d="M42.2455 23.9026V21.7086C43.4006 20.9904 44.1414 19.7087 44.1414 18.3008V17.6093L46.1421 10.63C46.2469 10.2641 46.0476 9.87832 45.6894 9.74892C45.649 9.73442 41.5942 8.20881 33.9781 0.514281C33.8422 0.376746 33.6563 0.299316 33.4627 0.299316H21.4697C21.2761 0.299316 21.0902 0.376746 20.9543 0.514281C13.3382 8.20881 9.28337 9.73442 9.2462 9.74785C8.88444 9.87514 8.6848 10.2616 8.79028 10.63L10.7909 17.6093V18.3008C10.7909 19.8012 11.6282 21.1625 12.9164 21.8458L12.8638 23.9026C12.8638 29.0898 15.5641 33.777 19.8577 36.4164V41.3433L15.176 42.7862L8.4717 44.6326C3.36915 45.7343 1.61485 50.3305 1.023 52.972C0.718229 54.3335 0.560356 55.857 0.554692 57.5C0.553984 57.6924 0.630089 57.8773 0.766016 58.0137C0.902296 58.1499 1.08707 58.2266 1.27963 58.2266H27.5549H53.8297C54.0223 58.2266 54.2071 58.1499 54.3434 58.0137C54.4793 57.8773 54.5554 57.6924 54.5547 57.5C54.549 55.857 54.3911 54.3335 54.0864 52.972C53.4945 50.3305 51.7402 45.7343 46.6773 44.6425L39.9337 42.7861L35.0988 41.296V36.5095C39.4695 33.8973 42.2455 29.1591 42.2455 23.9026ZM21.7716 1.7475H33.1608C39.293 7.90545 43.1408 10.1396 44.5744 10.8375L42.944 16.5248C41.0165 15.7752 35.6163 14.0211 27.4883 14.1341C19.3466 14.0304 13.9221 15.781 11.989 16.5271L10.358 10.8375C11.7916 10.1396 15.6393 7.90545 21.7716 1.7475ZM12.2408 17.9865C13.7364 17.3869 19.1883 15.4614 27.4883 15.5823C35.7547 15.4685 41.2017 17.3858 42.6916 17.9858V18.3008C42.6916 19.3785 42.024 20.3462 41.0303 20.7086C36.6839 22.2953 32.1268 23.0749 27.4738 23.024C27.4713 23.024 27.4685 23.024 27.466 23.024C27.4635 23.024 27.4607 23.024 27.4582 23.024C22.8045 23.0757 18.2485 22.2957 13.902 20.7086C12.9084 20.3462 12.2408 19.3785 12.2408 18.3008V17.9865ZM14.3134 23.921L14.3526 22.3909C18.5756 23.8119 22.9788 24.5074 27.466 24.4722C27.6101 24.4736 27.7538 24.4747 27.8975 24.4747C32.3107 24.4747 36.6423 23.7439 40.7957 22.3185V23.9026C40.7957 28.7466 38.1796 33.0998 34.0938 35.417C34.0904 35.4184 34.0878 35.4208 34.0844 35.4223C33.3364 35.8457 32.545 36.209 31.7052 36.4858C31.667 36.4979 27.8451 37.666 23.4148 36.489C17.971 34.6947 14.3137 29.6367 14.3134 23.921ZM20.3695 42.7011L26.586 49.1659L23.6728 52.7118L16.6138 43.8586L20.3695 42.7011ZM52.6712 53.2881C52.9087 54.347 53.0496 55.518 53.0917 56.7784H27.5549H2.01767C2.0598 55.518 2.20068 54.347 2.43819 53.2881C2.95394 50.9839 4.464 46.9795 8.81754 46.0383L15.1159 44.3046L23.0973 54.3148C23.2335 54.4859 23.4403 54.586 23.659 54.5877H23.6643C23.8813 54.5877 24.087 54.4905 24.2247 54.3229L27.5548 50.2694L30.8847 54.3229C31.0224 54.4905 31.2281 54.5877 31.4451 54.5877H31.4504C31.6691 54.586 31.8758 54.4859 32.0121 54.3148L39.9939 44.3045L46.3315 46.0482C50.6454 46.9795 52.1554 50.9839 52.6712 53.2881ZM31.4366 52.7118L28.5237 49.1659L34.7402 42.7011L38.4959 43.8586L31.4366 52.7118ZM33.6489 41.7455L27.5549 48.0827L21.3076 41.5861V37.1895C21.8542 37.4471 22.415 37.6833 23.001 37.8764C24.6519 38.3152 26.2122 38.4619 27.5619 38.4619C30.198 38.4619 32.0291 37.9022 32.1495 37.8644C32.6662 37.694 33.1625 37.488 33.6489 37.2665V41.7455Z" fill="#E8BF96"/>
<path d="M13.8964 46.4991L7.71526 48.024C7.3266 48.1198 7.08943 48.5122 7.18536 48.9004C7.26677 49.2303 7.5627 49.4509 7.88835 49.4509C7.94605 49.4509 8.00446 49.4442 8.06286 49.4297L14.244 47.9048C14.6326 47.809 14.8698 47.4166 14.7739 47.0283C14.678 46.6401 14.285 46.404 13.8964 46.4991Z" fill="#E8BF96"/>
<path d="M39.9822 47.0285C39.8863 47.4167 40.1235 47.8091 40.5121 47.9049L46.6933 49.4298C46.7517 49.4443 46.8101 49.451 46.8678 49.451C47.1931 49.451 47.4893 49.2304 47.5708 48.9006C47.6667 48.5123 47.4295 48.1199 47.0409 48.0241L40.8597 46.4992C40.4718 46.4023 40.0778 46.6399 39.9822 47.0285Z" fill="#E8BF96"/>
<path d="M24.1416 6.96173C23.4187 8.67155 24.1185 10.6345 25.7695 11.528L27.0303 12.2107C27.138 12.269 27.2569 12.2984 27.3758 12.2984C27.4948 12.2984 27.6137 12.269 27.7213 12.2107L28.9822 11.5283C30.6331 10.6345 31.3329 8.67155 30.5998 6.93769C30.4766 6.64848 30.7244 6.11354 30.854 5.91696C31.0635 5.60724 31.0023 5.18898 30.7131 4.95174L30.0699 4.42494C29.8653 4.25806 29.5864 4.21492 29.3429 4.3118C28.4746 4.65616 28.0236 4.20538 27.9386 4.10709C27.6615 3.76555 27.0778 3.76944 26.8056 4.11628C26.801 4.12194 26.345 4.6841 25.4088 4.3118C25.1638 4.21492 24.886 4.25806 24.6817 4.42494L24.0385 4.95174C23.7493 5.18898 23.6881 5.60724 23.8977 5.91696C24.0102 6.08384 24.2803 6.63575 24.1416 6.96173ZM25.4863 7.50409C25.7376 6.91329 25.6282 6.29598 25.4615 5.83423C26.3082 6.00535 26.9553 5.76493 27.3758 5.50011C27.7967 5.76564 28.4438 6.00676 29.2919 5.83387C29.1255 6.29845 29.0176 6.92213 29.2742 7.5253C29.6983 8.528 29.2664 9.72692 28.2912 10.2551L27.3758 10.7505L26.4604 10.2548C25.4852 9.72692 25.0534 8.528 25.4863 7.50409Z" fill="#E8BF96"/>
</svg>
