<svg baseProfile="full" height="28" version="1.1" viewBox="0 0 182 28" width="182" xmlns="http://www.w3.org/2000/svg" xmlns:ev="http://www.w3.org/2001/xml-events" xmlns:xlink="http://www.w3.org/1999/xlink"><defs /><g><path d="M19.76243093922652 27.613259668508285 6.226519337016574 13.613259668508285 19.49171270718232 0.7734806629834239H24.209944751381215L9.900552486187845 14.541436464088395V12.53038674033149L24.596685082872927 27.613259668508285ZM3.171270718232044 27.613259668508285V0.7734806629834239H6.806629834254143V27.613259668508285Z M28.92817679558011 27.613259668508285V0.7734806629834239H32.56353591160221V27.613259668508285ZM31.403314917127073 27.613259668508285V24.287292817679557H45.790055248618785V27.613259668508285Z M59.05524861878453 27.613259668508285 48.30386740331492 0.7734806629834239H52.248618784530386L61.10497237569061 23.47513812154696H59.67403314917127L68.60773480662984 0.7734806629834239H72.51381215469613L61.68508287292818 27.613259668508285Z M89.02762430939227 27.999999999999996Q86.20441988950276 27.999999999999996 83.74861878453038 26.936464088397788Q81.29281767955801 25.87292817679558 79.45580110497238 23.977900552486187Q77.61878453038675 22.082872928176794 76.57458563535911 19.56906077348066Q75.5303867403315 17.05524861878453 75.5303867403315 14.154696132596683Q75.5303867403315 11.254143646408838 76.57458563535911 8.759668508287291Q77.61878453038675 6.265193370165743 79.47513812154696 4.370165745856351Q81.33149171270718 2.4751381215469586 83.82596685082873 1.4309392265193353Q86.32044198895028 0.38674033149171194 89.25966850828729 0.38674033149171194Q92.4696132596685 0.38674033149171194 95.1767955801105 1.6243093922651912Q97.88397790055248 2.8618784530386705 99.70165745856353 5.182320441988949L97.1878453038674 7.696132596685082Q95.91160220994476 5.839779005524861 93.8232044198895 4.853591160220994Q91.73480662983425 3.8674033149171265 89.25966850828729 3.8674033149171265Q86.32044198895028 3.8674033149171265 84.05801104972376 5.182320441988949Q81.79558011049724 6.497237569060772 80.53867403314916 8.817679558011047Q79.2817679558011 11.138121546961322 79.2817679558011 14.154696132596683Q79.2817679558011 17.209944751381215 80.55801104972375 19.53038674033149Q81.8342541436464 21.850828729281766 84.0 23.16574585635359Q86.1657458563536 24.48066298342541 88.95027624309392 24.48066298342541Q91.77348066298343 24.48066298342541 93.8425414364641 23.397790055248617Q95.91160220994476 22.314917127071823 97.03314917127072 20.207182320441987Q98.15469613259668 18.09944751381215 98.15469613259668 15.044198895027622L100.35911602209944 16.629834254143645H88.75690607734806V13.303867403314914H101.9060773480663V13.845303867403313Q101.9060773480663 18.524861878453038 100.26243093922652 21.676795580110493Q98.61878453038673 24.828729281767952 95.6988950276243 26.414364640883974Q92.77900552486187 27.999999999999996 89.02762430939227 27.999999999999996Z M106.16022099447514 27.613259668508285V0.0H109.64088397790056V27.613259668508285Z M123.13812154696132 27.999999999999996Q120.43093922651933 27.999999999999996 118.26519337016575 26.723756906077345Q116.09944751381215 25.447513812154693 114.82320441988949 23.26243093922652Q113.54696132596685 21.07734806629834 113.54696132596685 18.37016574585635Q113.54696132596685 15.701657458563533 114.82320441988949 13.555248618784528Q116.09944751381215 11.408839779005522 118.26519337016575 10.13259668508287Q120.43093922651933 8.856353591160218 123.13812154696132 8.856353591160218Q125.80662983425414 8.856353591160218 127.9917127071823 10.113259668508285Q130.17679558011048 11.370165745856351 131.45303867403314 13.535911602209943Q132.7292817679558 15.701657458563533 132.7292817679558 18.37016574585635Q132.7292817679558 21.07734806629834 131.45303867403314 23.26243093922652Q130.17679558011048 25.447513812154693 127.9917127071823 26.723756906077345Q125.80662983425414 27.999999999999996 123.13812154696132 27.999999999999996ZM123.13812154696132 24.635359116022098Q124.87845303867402 24.635359116022098 126.23204419889501 23.8232044198895Q127.58563535911601 23.011049723756905 128.35911602209944 21.59944751381215Q129.13259668508286 20.1878453038674 129.13259668508286 18.37016574585635Q129.13259668508286 16.591160220994475 128.33977900552486 15.198895027624308Q127.54696132596683 13.806629834254142 126.21270718232043 13.013812154696131Q124.87845303867402 12.22099447513812 123.13812154696132 12.22099447513812Q121.3977900552486 12.22099447513812 120.04419889502762 13.013812154696131Q118.69060773480662 13.806629834254142 117.91712707182319 15.198895027624308Q117.14364640883977 16.591160220994475 117.14364640883977 18.37016574585635Q117.14364640883977 20.1878453038674 117.91712707182319 21.59944751381215Q118.69060773480662 23.011049723756905 120.04419889502762 23.8232044198895Q121.3977900552486 24.635359116022098 123.13812154696132 24.635359116022098Z M146.3038674033149 27.999999999999996Q144.21546961325964 27.999999999999996 142.53314917127068 27.129834254143645Q140.85082872928174 26.25966850828729 139.8453038674033 24.71270718232044Q138.83977900552486 23.16574585635359 138.72375690607734 21.193370165745854V15.662983425414362Q138.83977900552486 13.651933701657457 139.8646408839779 12.124309392265193Q140.88950276243094 10.596685082872927 142.5718232044199 9.726519337016573Q144.25414364640883 8.856353591160218 146.3038674033149 8.856353591160218Q148.81767955801104 8.856353591160218 150.84806629834253 10.13259668508287Q152.87845303867402 11.408839779005522 154.03867403314916 13.574585635359114Q155.1988950276243 15.740331491712706 155.1988950276243 18.447513812154696Q155.1988950276243 21.154696132596683 154.03867403314916 23.32044198895027Q152.87845303867402 25.486187845303863 150.84806629834253 26.74309392265193Q148.81767955801104 27.999999999999996 146.3038674033149 27.999999999999996ZM136.63535911602207 27.613259668508285V0.0H140.1160220994475V13.729281767955799L139.4585635359116 18.176795580110493L140.1160220994475 22.66298342541436V27.613259668508285ZM145.72375690607734 24.71270718232044Q147.46408839779005 24.71270718232044 148.77900552486187 23.90055248618784Q150.0939226519337 23.088397790055247 150.8674033149171 21.676795580110493Q151.64088397790053 20.265193370165743 151.64088397790053 18.408839779005522Q151.64088397790053 16.591160220994475 150.8674033149171 15.160220994475136Q150.0939226519337 13.729281767955799 148.77900552486187 12.936464088397788Q147.46408839779005 12.143646408839777 145.7624309392265 12.143646408839777Q144.0220994475138 12.143646408839777 142.70718232044197 12.936464088397788Q141.39226519337015 13.729281767955799 140.6574585635359 15.160220994475136Q139.92265193370164 16.591160220994475 139.92265193370164 18.447513812154696Q139.92265193370164 20.265193370165743 140.63812154696132 21.676795580110493Q141.353591160221 23.088397790055247 142.6878453038674 23.90055248618784Q144.0220994475138 24.71270718232044 145.72375690607734 24.71270718232044Z M166.95580110497238 27.999999999999996Q164.44198895027625 27.999999999999996 162.39226519337018 26.74309392265193Q160.3425414364641 25.486187845303863 159.16298342541438 23.32044198895027Q157.98342541436466 21.154696132596683 157.98342541436466 18.447513812154696Q157.98342541436466 15.740331491712706 159.16298342541438 13.574585635359114Q160.3425414364641 11.408839779005522 162.3729281767956 10.13259668508287Q164.4033149171271 8.856353591160218 166.95580110497238 8.856353591160218Q169.04419889502762 8.856353591160218 170.6878453038674 9.726519337016573Q172.3314917127072 10.596685082872927 173.33701657458565 12.124309392265193Q174.3425414364641 13.651933701657457 174.4585635359116 15.662983425414362V21.193370165745854Q174.3425414364641 23.16574585635359 173.35635359116023 24.71270718232044Q172.37016574585635 26.25966850828729 170.72651933701658 27.129834254143645Q169.0828729281768 27.999999999999996 166.95580110497238 27.999999999999996ZM167.53591160220995 24.71270718232044Q170.12707182320443 24.71270718232044 171.71270718232046 22.953038674033145Q173.29834254143645 21.193370165745854 173.29834254143645 18.447513812154696Q173.29834254143645 16.552486187845304 172.5828729281768 15.14088397790055Q171.86740331491714 13.729281767955799 170.55248618784532 12.936464088397788Q169.2375690607735 12.143646408839777 167.4972375690608 12.143646408839777Q165.75690607734808 12.143646408839777 164.42265193370167 12.955801104972373Q163.08839779005527 13.76795580110497 162.33425414364643 15.179558011049721Q161.58011049723757 16.591160220994475 161.58011049723757 18.408839779005522Q161.58011049723757 20.265193370165743 162.33425414364643 21.676795580110493Q163.08839779005527 23.088397790055247 164.44198895027625 23.90055248618784Q165.79558011049724 24.71270718232044 167.53591160220995 24.71270718232044ZM173.06629834254144 27.613259668508285V22.66298342541436L173.72375690607737 18.176795580110493L173.06629834254144 13.729281767955799V9.24309392265193H176.58563535911603V27.613259668508285Z M181.65193370165747 27.613259668508285V0.0H185.13259668508286V27.613259668508285Z " fill="rgb(255,255,255)" transform="translate(-3.171270718232044, 0)" /></g></svg>