<svg width="1920" height="190" viewBox="0 0 1920 190" fill="none" xmlns="http://www.w3.org/2000/svg">
<path d="M-7.85485 4.34536C-8.85043 10.4483 -9.24593 18.1875 -10.7168 26.8488M-10.7168 26.8488C-13.3566 42.3931 -19.4599 60.9073 -38.7116 78.2631C-60.8769 98.2456 -38.0985 51.1328 -10.7168 26.8488ZM-10.7168 26.8488C-1.92533 19.0519 7.34068 13.6084 15.746 13.4945C30.686 13.2922 27.2678 33.6566 17.1135 57.7307M17.1135 57.7307C-0.209102 98.7995 -37.1351 150.664 -35.9647 129.637C-35.3223 118.094 -7.32054 80.4028 17.1135 57.7307ZM17.1135 57.7307C32.1795 43.7511 45.8891 35.4818 50.9921 42.5742C55.2022 48.4257 53.9481 59.4055 49.4918 72.5589M49.4918 72.5589C35.9332 112.579 -7.26944 172.719 -16.4069 169.752C-31.5488 164.836 14.1792 103.015 49.4918 72.5589ZM49.4918 72.5589C64.1276 59.9361 76.9742 52.7013 82.9564 57.139C95.0117 66.082 86.6893 91.3002 72.6487 114.676M72.6487 114.676C58.3357 138.504 38.0805 160.418 27.4126 161.223C16.7533 162.028 42.6852 130.98 72.6487 114.676ZM72.6487 114.676C90.2093 105.12 109.155 100.629 122.931 110.581" stroke="#FFBC99" stroke-width="4" stroke-linecap="round"/>
<path d="M1900.46 45.0297C1900.46 45.0297 1880.13 53.4124 1881.74 73.094C1883.3 92.7391 1897.68 106.836 1886 118.835C1886 118.835 1882.02 107.578 1878.47 97.1899C1874.92 86.8013 1868.63 50.7372 1900.43 45.0754L1900.46 45.0297Z" fill="#07C5BD"/>
<path d="M1952.2 33.8004C1948.05 34.8744 1943.23 35.5667 1937.61 35.7679C1904.26 36.9727 1889.12 42.3533 1880.92 57.8811C1880.92 57.8811 1891.86 44.0819 1932.72 44.3364C1944.1 44.4202 1952.47 42.1797 1958.64 38.9424L1952.15 33.7639L1952.2 33.8004Z" fill="#1FE1D9"/>
<path d="M1849.71 113.313C1849.71 113.313 1843.19 117.607 1853.34 132.976C1863.43 148.308 1852.58 157.084 1852.58 157.084L1852.82 151.114L1846.58 152.219C1846.58 152.219 1851.8 147.852 1846.32 139.399C1839.1 128.217 1838.54 121.166 1842.38 115.404C1846.31 109.633 1849.7 113.231 1849.7 113.231L1849.71 113.313Z" fill="#07C5BD"/>
<path d="M1840.01 121.256C1840.01 121.256 1841.92 111.961 1854.42 114.574C1866.92 117.187 1883.6 130.805 1890.33 111.09C1890.33 111.09 1881.6 116.009 1868.36 109.743C1855.17 103.431 1840.67 106.82 1840.01 121.256Z" fill="#1FE1D9"/>
<path opacity="0.4" d="M417 145.936C417 145.936 423.266 140.622 428.58 141.018C428.58 141.018 430.008 130.549 436.908 123.331C436.908 123.331 431.594 121.586 424.614 126.107C424.614 126.107 416.207 136.259 417.079 145.856L417 145.936Z" fill="#12C6FF"/>
<path d="M1467 99C1467 99 1473.29 93.6711 1478.63 94.0687C1478.63 94.0687 1480.07 83.5699 1487 76.3321C1487 76.3321 1481.66 74.5823 1474.65 79.1159C1474.65 79.1159 1466.2 89.2965 1467.08 98.9205L1467 99Z" fill="#B38FFF" fill-opacity="0.5"/>
</svg>
