<svg width="361" height="89" viewBox="0 0 361 89" fill="none" xmlns="http://www.w3.org/2000/svg">
<rect x="9.5" y="8.5" width="342" height="72" rx="5.5" fill="#FF8B37" fill-opacity="0.1" stroke="#FF8B37" stroke-dasharray="10 10"/>
<mask id="path-2-inside-1_74_2946" fill="white">
<path d="M345.387 15.3869L347.67 9.35541L343.819 4.18241L349.85 6.46529L355.023 2.61424L352.741 8.64574L356.592 13.8187L350.56 11.5359L345.387 15.3869Z"/>
</mask>
<path d="M345.387 15.3869L347.67 9.35541L343.819 4.18241L349.85 6.46529L355.023 2.61424L352.741 8.64574L356.592 13.8187L350.56 11.5359L345.387 15.3869Z" fill="#FF8B37"/>
<path d="M345.387 15.3869L334.164 11.1391L319.639 49.5152L352.553 25.0125L345.387 15.3869ZM347.67 9.35541L358.893 13.6032L361.218 7.45919L357.296 2.18965L347.67 9.35541ZM343.819 4.18241L348.067 -7.0406L309.691 -21.5657L334.193 11.3482L343.819 4.18241ZM349.85 6.46529L345.603 17.6883L351.747 20.0138L357.016 16.0909L349.85 6.46529ZM355.023 2.61424L366.246 6.86208L380.772 -31.5141L347.858 -7.01134L355.023 2.61424ZM352.741 8.64574L341.518 4.39791L339.192 10.542L343.115 15.8115L352.741 8.64574ZM356.592 13.8187L352.344 25.0418L390.72 39.5669L366.217 6.65298L356.592 13.8187ZM350.56 11.5359L354.808 0.312858L348.664 -2.01263L343.394 1.91029L350.56 11.5359ZM356.61 19.6347L358.893 13.6032L336.447 5.10758L334.164 11.1391L356.61 19.6347ZM357.296 2.18965L353.445 -2.98336L334.193 11.3482L338.044 16.5212L357.296 2.18965ZM339.571 15.4054L345.603 17.6883L354.098 -4.75772L348.067 -7.0406L339.571 15.4054ZM357.016 16.0909L362.189 12.2398L347.858 -7.01134L342.685 -3.16029L357.016 16.0909ZM343.8 -1.63359L341.518 4.39791L363.964 12.8936L366.246 6.86208L343.8 -1.63359ZM343.115 15.8115L346.966 20.9845L366.217 6.65298L362.366 1.47998L343.115 15.8115ZM360.839 2.59574L354.808 0.312858L346.312 22.7589L352.344 25.0418L360.839 2.59574ZM343.394 1.91029L338.221 5.76133L352.553 25.0125L357.726 21.1614L343.394 1.91029Z" fill="#FF8B37" mask="url(#path-2-inside-1_74_2946)"/>
<mask id="path-4-inside-2_74_2946" fill="white">
<path d="M4.65685 73.6566L10.3137 76.7535L15.9706 73.6566L12.8737 79.3135L15.9706 84.9703L10.3137 81.8735L4.65685 84.9703L7.75371 79.3135L4.65685 73.6566Z"/>
</mask>
<path d="M4.65685 73.6566L10.3137 76.7535L15.9706 73.6566L12.8737 79.3135L15.9706 84.9703L10.3137 81.8735L4.65685 84.9703L7.75371 79.3135L4.65685 73.6566Z" fill="#FF8B37"/>
<path d="M4.65685 73.6566L10.4193 63.1307L-25.5732 43.4266L-5.86904 79.419L4.65685 73.6566ZM10.3137 76.7535L4.55129 87.2794L10.3137 90.434L16.0761 87.2794L10.3137 76.7535ZM15.9706 73.6566L26.4965 79.419L46.2006 43.4266L10.2081 63.1307L15.9706 73.6566ZM12.8737 79.3135L2.34781 73.5511L-0.806836 79.3135L2.34781 85.0759L12.8737 79.3135ZM15.9706 84.9703L10.2081 95.4962L46.2006 115.2L26.4965 79.2079L15.9706 84.9703ZM10.3137 81.8735L16.0761 71.3476L10.3137 68.1929L4.55129 71.3476L10.3137 81.8735ZM4.65685 84.9703L-5.86904 79.2079L-25.5732 115.2L10.4193 95.4962L4.65685 84.9703ZM7.75371 79.3135L18.2796 85.0759L21.4343 79.3135L18.2796 73.5511L7.75371 79.3135ZM-1.10557 84.1825L4.55129 87.2794L16.0761 66.2276L10.4193 63.1307L-1.10557 84.1825ZM16.0761 87.2794L21.733 84.1825L10.2081 63.1307L4.55129 66.2276L16.0761 87.2794ZM5.44467 67.8942L2.34781 73.5511L23.3996 85.0759L26.4965 79.419L5.44467 67.8942ZM2.34781 85.0759L5.44467 90.7328L26.4965 79.2079L23.3996 73.5511L2.34781 85.0759ZM21.733 74.4444L16.0761 71.3476L4.55129 92.3994L10.2081 95.4962L21.733 74.4444ZM4.55129 71.3476L-1.10557 74.4444L10.4193 95.4962L16.0761 92.3994L4.55129 71.3476ZM15.1828 90.7328L18.2796 85.0759L-2.77219 73.5511L-5.86904 79.2079L15.1828 90.7328ZM18.2796 73.5511L15.1828 67.8942L-5.86904 79.419L-2.77219 85.0759L18.2796 73.5511Z" fill="#FF8B37" mask="url(#path-4-inside-2_74_2946)"/>
</svg>
