<svg width="443" height="89" viewBox="0 0 443 89" fill="none" xmlns="http://www.w3.org/2000/svg">
<rect x="9.5" y="8.5" width="428" height="72" rx="5.5" fill="#FF8B37" fill-opacity="0.1" stroke="#FF8B37" stroke-dasharray="10 10"/>
<mask id="path-2-inside-1_74_3418" fill="white">
<path d="M431.18 15.3864L433.463 9.35492L429.612 4.18192L435.643 6.4648L440.816 2.61376L438.534 8.64525L442.385 13.8183L436.353 11.5354L431.18 15.3864Z"/>
</mask>
<path d="M431.18 15.3864L433.463 9.35492L429.612 4.18192L435.643 6.4648L440.816 2.61376L438.534 8.64525L442.385 13.8183L436.353 11.5354L431.18 15.3864Z" fill="#FF8B37"/>
<path d="M431.18 15.3864L419.957 11.1386L405.432 49.5147L438.346 25.012L431.18 15.3864ZM433.463 9.35492L444.686 13.6028L447.011 7.4587L443.089 2.18916L433.463 9.35492ZM429.612 4.18192L433.86 -7.04109L395.484 -21.5662L419.986 11.3477L429.612 4.18192ZM435.643 6.4648L431.396 17.6878L437.54 20.0133L442.809 16.0904L435.643 6.4648ZM440.816 2.61376L452.039 6.86159L466.565 -31.5146L433.651 -7.01182L440.816 2.61376ZM438.534 8.64525L427.311 4.39742L424.985 10.5415L428.908 15.811L438.534 8.64525ZM442.385 13.8183L438.137 25.0413L476.513 39.5664L452.01 6.65249L442.385 13.8183ZM436.353 11.5354L440.601 0.31237L434.457 -2.01311L429.187 1.9098L436.353 11.5354ZM442.403 19.6343L444.686 13.6028L422.24 5.10709L419.957 11.1386L442.403 19.6343ZM443.089 2.18916L439.237 -2.98385L419.986 11.3477L423.837 16.5207L443.089 2.18916ZM425.364 15.4049L431.396 17.6878L439.891 -4.75821L433.86 -7.04109L425.364 15.4049ZM442.809 16.0904L447.982 12.2393L433.651 -7.01182L428.478 -3.16078L442.809 16.0904ZM429.593 -1.63408L427.311 4.39742L449.757 12.8931L452.039 6.86159L429.593 -1.63408ZM428.908 15.811L432.759 20.984L452.01 6.65249L448.159 1.47949L428.908 15.811ZM446.632 2.59525L440.601 0.31237L432.105 22.7584L438.137 25.0413L446.632 2.59525ZM429.187 1.9098L424.014 5.76084L438.346 25.012L443.519 21.161L429.187 1.9098Z" fill="#FF8B37" mask="url(#path-2-inside-1_74_3418)"/>
<mask id="path-4-inside-2_74_3418" fill="white">
<path d="M4.65685 73.6566L10.3137 76.7535L15.9706 73.6566L12.8737 79.3135L15.9706 84.9703L10.3137 81.8735L4.65685 84.9703L7.75371 79.3135L4.65685 73.6566Z"/>
</mask>
<path d="M4.65685 73.6566L10.3137 76.7535L15.9706 73.6566L12.8737 79.3135L15.9706 84.9703L10.3137 81.8735L4.65685 84.9703L7.75371 79.3135L4.65685 73.6566Z" fill="#FF8B37"/>
<path d="M4.65685 73.6566L10.4193 63.1307L-25.5732 43.4266L-5.86904 79.419L4.65685 73.6566ZM10.3137 76.7535L4.55129 87.2794L10.3137 90.434L16.0761 87.2794L10.3137 76.7535ZM15.9706 73.6566L26.4965 79.419L46.2006 43.4266L10.2081 63.1307L15.9706 73.6566ZM12.8737 79.3135L2.34781 73.5511L-0.806836 79.3135L2.34781 85.0759L12.8737 79.3135ZM15.9706 84.9703L10.2081 95.4962L46.2006 115.2L26.4965 79.2079L15.9706 84.9703ZM10.3137 81.8735L16.0761 71.3476L10.3137 68.1929L4.55129 71.3476L10.3137 81.8735ZM4.65685 84.9703L-5.86904 79.2079L-25.5732 115.2L10.4193 95.4962L4.65685 84.9703ZM7.75371 79.3135L18.2796 85.0759L21.4343 79.3135L18.2796 73.5511L7.75371 79.3135ZM-1.10557 84.1825L4.55129 87.2794L16.0761 66.2276L10.4193 63.1307L-1.10557 84.1825ZM16.0761 87.2794L21.733 84.1825L10.2081 63.1307L4.55129 66.2276L16.0761 87.2794ZM5.44467 67.8942L2.34781 73.5511L23.3996 85.0759L26.4965 79.419L5.44467 67.8942ZM2.34781 85.0759L5.44467 90.7328L26.4965 79.2079L23.3996 73.5511L2.34781 85.0759ZM21.733 74.4444L16.0761 71.3476L4.55129 92.3994L10.2081 95.4962L21.733 74.4444ZM4.55129 71.3476L-1.10557 74.4444L10.4193 95.4962L16.0761 92.3994L4.55129 71.3476ZM15.1828 90.7328L18.2796 85.0759L-2.77219 73.5511L-5.86904 79.2079L15.1828 90.7328ZM18.2796 73.5511L15.1828 67.8942L-5.86904 79.419L-2.77219 85.0759L18.2796 73.5511Z" fill="#FF8B37" mask="url(#path-4-inside-2_74_3418)"/>
</svg>
